<?xml version="1.0" encoding="UTF-8" standalone="no"?>
<!-- Generator: Adobe Illustrator 19.0.0, SVG Export Plug-In . SVG Version: 6.00 Build 0)  -->

<svg
   xmlns:dc="http://purl.org/dc/elements/1.1/"
   xmlns:cc="http://creativecommons.org/ns#"
   xmlns:rdf="http://www.w3.org/1999/02/22-rdf-syntax-ns#"
   xmlns:svg="http://www.w3.org/2000/svg"
   xmlns="http://www.w3.org/2000/svg"
   xmlns:sodipodi="http://sodipodi.sourceforge.net/DTD/sodipodi-0.dtd"
   xmlns:inkscape="http://www.inkscape.org/namespaces/inkscape"
   version="1.1"
   id="Layer_1"
   x="0px"
   y="0px"
   viewBox="0 0 291.319 291.319"
   style="enable-background:new 0 0 291.319 291.319;"
   xml:space="preserve"
   inkscape:version="0.91 r13725"
   sodipodi:docname="blogger.svg"><metadata
     id="metadata43"><rdf:RDF><cc:Work
         rdf:about=""><dc:format>image/svg+xml</dc:format><dc:type
           rdf:resource="http://purl.org/dc/dcmitype/StillImage" /></cc:Work></rdf:RDF></metadata><defs
     id="defs41" /><sodipodi:namedview
     pagecolor="#ffffff"
     bordercolor="#666666"
     borderopacity="1"
     objecttolerance="10"
     gridtolerance="10"
     guidetolerance="10"
     inkscape:pageopacity="0"
     inkscape:pageshadow="2"
     inkscape:window-width="954"
     inkscape:window-height="991"
     id="namedview39"
     showgrid="false"
     inkscape:zoom="0.57283322"
     inkscape:cx="138.80866"
     inkscape:cy="192.7573"
     inkscape:window-x="960"
     inkscape:window-y="0"
     inkscape:window-maximized="0"
     inkscape:current-layer="Layer_1" /><path
     inkscape:connector-curvature="0"
     id="path5"
     d="m 145.659,0 c 80.44,0 145.66,65.219 145.66,145.66 0,80.441 -65.219,145.659 -145.659,145.659 C 65.22,291.319 0,226.1 0,145.66 0,65.22 65.21,0 145.659,0 Z"
     style="fill:#f4b459" /><path
     style="fill:#000000;fill-opacity:1;opacity:0.3"
     d="m 211.80515,132.08179 -82.70507,19.75 -53.078126,40.73438 79.017576,98.33398 c 51.39208,-3.88192 95.33373,-34.44049 118.0332,-77.85938 l -61.26758,-80.95898 z"
     id="path4187"
     inkscape:connector-curvature="0" /><path
     inkscape:connector-curvature="0"
     id="path7"
     d="m 218.089,133.324 -1.238,-2.531 -2.048,-1.602 c -2.686,-2.094 -16.268,0.146 -19.928,-3.177 -2.595,-2.376 -3.004,-6.664 -3.787,-12.454 -1.457,-11.252 -2.385,-11.835 -4.142,-15.631 -6.4,-13.537 -23.752,-23.706 -35.677,-25.117 l -32.3,0 c -25.408,0 -46.174,20.729 -46.174,46.047 l 0,53.694 c 0,25.263 20.766,45.956 46.174,45.956 l 53.066,0 c 25.418,0 46.056,-20.684 46.192,-45.956 l 0.282,-37.198 c -0.002,-10e-4 -0.42,-2.031 -0.42,-2.031 z m -99.513,-24.025 26.874,0 c 5.116,0 9.286,4.088 9.286,9.067 0,4.962 -4.16,9.086 -9.286,9.086 l -26.874,0 c -5.125,0 -9.286,-4.124 -9.286,-9.086 0,-4.979 4.161,-9.067 9.286,-9.067 z m 54.331,72.766 -54.367,0 c -5.107,0 -9.249,-4.169 -9.249,-9.122 0,-5.025 4.142,-9.113 9.249,-9.113 l 54.367,0 c 5.08,0 9.195,4.088 9.195,9.113 0,4.953 -4.115,9.122 -9.195,9.122 z"
     style="fill:#ffffff" /><g
     id="g9" /><g
     id="g11" /><g
     id="g13" /><g
     id="g15" /><g
     id="g17" /><g
     id="g19" /><g
     id="g21" /><g
     id="g23" /><g
     id="g25" /><g
     id="g27" /><g
     id="g29" /><g
     id="g31" /><g
     id="g33" /><g
     id="g35" /><g
     id="g37" /></svg>