<?xml version="1.0" encoding="UTF-8" standalone="no"?>
<!-- Generator: Adobe Illustrator 18.0.0, SVG Export Plug-In . SVG Version: 6.00 Build 0)  -->

<svg
   xmlns:dc="http://purl.org/dc/elements/1.1/"
   xmlns:cc="http://creativecommons.org/ns#"
   xmlns:rdf="http://www.w3.org/1999/02/22-rdf-syntax-ns#"
   xmlns:svg="http://www.w3.org/2000/svg"
   xmlns="http://www.w3.org/2000/svg"
   xmlns:sodipodi="http://sodipodi.sourceforge.net/DTD/sodipodi-0.dtd"
   xmlns:inkscape="http://www.inkscape.org/namespaces/inkscape"
   version="1.1"
   id="Capa_1"
   x="0px"
   y="0px"
   viewBox="0 0 60 60"
   style="enable-background:new 0 0 60 60;"
   xml:space="preserve"
   inkscape:version="0.91 r13725"
   sodipodi:docname="cubix.svg"><metadata
     id="metadata49"><rdf:RDF><cc:Work
         rdf:about=""><dc:format>image/svg+xml</dc:format><dc:type
           rdf:resource="http://purl.org/dc/dcmitype/StillImage" /></cc:Work></rdf:RDF></metadata><defs
     id="defs47" /><sodipodi:namedview
     pagecolor="#ffffff"
     bordercolor="#666666"
     borderopacity="1"
     objecttolerance="10"
     gridtolerance="10"
     guidetolerance="10"
     inkscape:pageopacity="0"
     inkscape:pageshadow="2"
     inkscape:window-width="1920"
     inkscape:window-height="991"
     id="namedview45"
     showgrid="false"
     inkscape:zoom="3.9333333"
     inkscape:cx="47.542373"
     inkscape:cy="30"
     inkscape:window-x="0"
     inkscape:window-y="0"
     inkscape:window-maximized="1"
     inkscape:current-layer="Capa_1" /><path
     inkscape:connector-curvature="0"
     id="path5"
     d="M 4.001,47 C 3.623,47 3.261,46.785 3.092,46.419 2.861,45.918 3.08,45.323 3.581,45.092 l 1.816,-0.838 c 0.502,-0.231 1.096,-0.012 1.327,0.489 0.231,0.501 0.012,1.096 -0.489,1.327 L 4.419,46.908 C 4.283,46.971 4.141,47 4.001,47 Z m 50.844,-0.533 c -0.141,0 -0.283,-0.029 -0.418,-0.092 L 52.611,45.537 C 52.11,45.306 51.89,44.711 52.122,44.21 c 0.231,-0.502 0.826,-0.72 1.327,-0.489 l 1.816,0.838 c 0.501,0.231 0.721,0.826 0.489,1.327 -0.169,0.366 -0.531,0.581 -0.909,0.581 z M 9.448,44.486 C 9.07,44.486 8.708,44.27 8.54,43.904 8.308,43.403 8.527,42.809 9.029,42.577 l 1.816,-0.838 c 0.499,-0.231 1.096,-0.013 1.327,0.489 0.232,0.501 0.013,1.095 -0.489,1.327 l -1.816,0.838 c -0.136,0.064 -0.278,0.093 -0.419,0.093 z m 39.95,-0.533 c -0.141,0 -0.283,-0.029 -0.418,-0.092 l -1.816,-0.838 c -0.501,-0.231 -0.721,-0.826 -0.489,-1.327 0.231,-0.502 0.827,-0.721 1.327,-0.489 l 1.816,0.838 c 0.501,0.231 0.721,0.826 0.489,1.327 -0.17,0.366 -0.532,0.581 -0.909,0.581 z M 14.896,41.971 c -0.378,0 -0.74,-0.215 -0.909,-0.581 -0.231,-0.501 -0.012,-1.096 0.489,-1.327 l 1.816,-0.838 c 0.502,-0.231 1.096,-0.012 1.327,0.489 0.231,0.501 0.012,1.096 -0.489,1.327 l -1.816,0.838 c -0.135,0.063 -0.278,0.092 -0.418,0.092 z M 43.95,41.438 c -0.14,0 -0.283,-0.029 -0.418,-0.092 l -1.816,-0.838 c -0.501,-0.231 -0.72,-0.826 -0.489,-1.327 0.231,-0.501 0.826,-0.72 1.327,-0.489 l 1.816,0.838 c 0.501,0.231 0.72,0.826 0.489,1.327 -0.169,0.366 -0.531,0.581 -0.909,0.581 z M 20.344,39.457 c -0.378,0 -0.74,-0.215 -0.908,-0.581 -0.232,-0.501 -0.013,-1.095 0.489,-1.327 l 1.816,-0.838 c 0.5,-0.231 1.096,-0.013 1.327,0.489 0.232,0.501 0.013,1.095 -0.489,1.327 l -1.816,0.838 c -0.136,0.063 -0.279,0.092 -0.419,0.092 z m 18.158,-0.533 c -0.141,0 -0.283,-0.029 -0.418,-0.092 l -1.816,-0.838 c -0.501,-0.231 -0.721,-0.826 -0.489,-1.327 0.231,-0.502 0.826,-0.722 1.327,-0.489 l 1.816,0.838 c 0.501,0.231 0.721,0.826 0.489,1.327 -0.169,0.366 -0.531,0.581 -0.909,0.581 z m -12.71,-1.982 c -0.378,0 -0.74,-0.215 -0.909,-0.581 -0.231,-0.501 -0.012,-1.096 0.489,-1.327 l 1.816,-0.838 c 0.502,-0.231 1.095,-0.012 1.327,0.489 0.231,0.501 0.012,1.096 -0.489,1.327 L 26.21,36.85 c -0.136,0.063 -0.278,0.092 -0.418,0.092 z m 7.262,-0.532 c -0.14,0 -0.283,-0.03 -0.418,-0.092 L 30.82,35.48 c -0.501,-0.231 -0.72,-0.826 -0.489,-1.327 0.231,-0.501 0.826,-0.721 1.327,-0.489 l 1.816,0.838 c 0.501,0.231 0.72,0.826 0.489,1.327 -0.169,0.365 -0.531,0.581 -0.909,0.581 z"
     style="fill:#26b99a" /><path
     inkscape:connector-curvature="0"
     id="path7"
     d="m 30,27 c -0.552,0 -1,-0.448 -1,-1 l 0,-2 c 0,-0.552 0.448,-1 1,-1 0.552,0 1,0.448 1,1 l 0,2 c 0,0.552 -0.448,1 -1,1 z m 0,-6 c -0.552,0 -1,-0.448 -1,-1 l 0,-2 c 0,-0.552 0.448,-1 1,-1 0.552,0 1,0.448 1,1 l 0,2 c 0,0.552 -0.448,1 -1,1 z m 0,-6 c -0.552,0 -1,-0.448 -1,-1 l 0,-2 c 0,-0.552 0.448,-1 1,-1 0.552,0 1,0.448 1,1 l 0,2 c 0,0.552 -0.448,1 -1,1 z M 30,9 C 29.448,9 29,8.552 29,8 l 0,-2 c 0,-0.552 0.448,-1 1,-1 0.552,0 1,0.448 1,1 l 0,2 c 0,0.552 -0.448,1 -1,1 z M 30,3 C 29.448,3 29,2.552 29,2 l 0,-1 c 0,-0.552 0.448,-1 1,-1 0.552,0 1,0.448 1,1 l 0,1 c 0,0.552 -0.448,1 -1,1 z"
     style="fill:#26b99a" /><path
     inkscape:connector-curvature="0"
     id="path9"
     d="m 30,60 c -0.153,0 -0.306,-0.035 -0.447,-0.105 l -26,-13 C 3.214,46.725 3,46.379 3,46 L 3,14 C 3,13.659 3.174,13.341 3.461,13.158 3.75,12.975 4.11,12.95 4.419,13.092 l 26,12 C 30.773,25.255 31,25.61 31,26 l 0,33 c 0,0.347 -0.18,0.668 -0.474,0.851 C 30.365,59.95 30.183,60 30,60 Z M 5,45.382 29,57.382 29,26.64 5,15.563 5,45.382 Z"
     style="fill:#777777;fill-opacity:1" /><path
     inkscape:connector-curvature="0"
     id="path11"
     d="M 30,60 C 29.817,60 29.635,59.95 29.474,59.851 29.18,59.668 29,59.347 29,59 l 0,-33 c 0,-0.39 0.227,-0.745 0.581,-0.908 l 26,-12 C 55.89,12.95 56.252,12.975 56.539,13.158 56.826,13.341 57,13.659 57,14 l 0,32 c 0,0.379 -0.214,0.725 -0.553,0.895 l -26,13 C 30.306,59.965 30.153,60 30,60 Z m 1,-33.36 0,30.742 24,-12 0,-29.819 -24,11.077 z"
     style="fill:#777777;fill-opacity:1" /><path
     inkscape:connector-curvature="0"
     id="path13"
     d="m 30,27 c -0.143,0 -0.286,-0.031 -0.419,-0.092 l -26,-12 C 3.232,14.747 3.006,14.4 3,14.016 2.994,13.632 3.209,13.278 3.553,13.106 l 26,-13 c 0.281,-0.141 0.613,-0.141 0.895,0 l 26,13 c 0.344,0.172 0.559,0.526 0.553,0.91 -0.006,0.384 -0.232,0.731 -0.581,0.893 l -26,12 C 30.286,26.969 30.143,27 30,27 Z M 6.308,13.964 30,24.898 53.692,13.963 30,2.118 6.308,13.964 Z"
     style="fill:#777777;fill-opacity:1" /><g
     id="g15" /><g
     id="g17" /><g
     id="g19" /><g
     id="g21" /><g
     id="g23" /><g
     id="g25" /><g
     id="g27" /><g
     id="g29" /><g
     id="g31" /><g
     id="g33" /><g
     id="g35" /><g
     id="g37" /><g
     id="g39" /><g
     id="g41" /><g
     id="g43" /></svg>