<?xml version="1.0" encoding="UTF-8" standalone="no"?>
<!-- Created with Inkscape (http://www.inkscape.org/) -->

<svg
   xmlns:dc="http://purl.org/dc/elements/1.1/"
   xmlns:cc="http://creativecommons.org/ns#"
   xmlns:rdf="http://www.w3.org/1999/02/22-rdf-syntax-ns#"
   xmlns:svg="http://www.w3.org/2000/svg"
   xmlns="http://www.w3.org/2000/svg"
   xmlns:sodipodi="http://sodipodi.sourceforge.net/DTD/sodipodi-0.dtd"
   xmlns:inkscape="http://www.inkscape.org/namespaces/inkscape"
   id="svg2"
   version="1.1"
   inkscape:version="0.91 r13725"
   xml:space="preserve"
   width="1350"
   height="760"
   viewBox="0 0 1350 760"
   sodipodi:docname="womens day google plus templates.ai (copia).svg"><metadata
     id="metadata8"><rdf:RDF><cc:Work
         rdf:about=""><dc:format>image/svg+xml</dc:format><dc:type
           rdf:resource="http://purl.org/dc/dcmitype/StillImage" /><dc:title /></cc:Work></rdf:RDF></metadata><defs
     id="defs6"><clipPath
       clipPathUnits="userSpaceOnUse"
       id="clipPath16"><path
         d="m 0,0 1080,0 0,608 L 0,608 0,0 Z"
         id="path18"
         inkscape:connector-curvature="0" /></clipPath><clipPath
       clipPathUnits="userSpaceOnUse"
       id="clipPath24"><path
         d="m -138.277,812.806 1397.007,0 0,-1256.681 -1397.007,0 0,1256.681 z"
         id="path26"
         inkscape:connector-curvature="0" /></clipPath><clipPath
       clipPathUnits="userSpaceOnUse"
       id="clipPath8788"><path
         d="m 0,0 1080,0 0,608 L 0,608 0,0 Z"
         id="path8790"
         inkscape:connector-curvature="0" /></clipPath><clipPath
       clipPathUnits="userSpaceOnUse"
       id="clipPath8796"><path
         d="m -171.473,821.67 1717.973,0 0,-802.212 -1717.973,0 0,802.212 z"
         id="path8798"
         inkscape:connector-curvature="0" /></clipPath><clipPath
       clipPathUnits="userSpaceOnUse"
       id="clipPath8800"><path
         d="m 329.023,443.488 179.431,0 0,-286.334 -179.431,0 0,286.334 z"
         id="path8802"
         inkscape:connector-curvature="0" /></clipPath><clipPath
       clipPathUnits="userSpaceOnUse"
       id="clipPath8804"><path
         d="m 572.88,241.998 973.62,0 0,-151.2636 -973.62,0 0,151.2636 z"
         id="path8806"
         inkscape:connector-curvature="0" /></clipPath><clipPath
       clipPathUnits="userSpaceOnUse"
       id="clipPath8984"><path
         d="M 0,608 1080,608 1080,0 0,0 0,608 Z"
         id="path8986"
         inkscape:connector-curvature="0" /></clipPath><clipPath
       clipPathUnits="userSpaceOnUse"
       id="clipPath8992"><path
         d="m 517.89,178.704 385.047,0 0,-91.6601 -385.047,0 0,91.6601 z"
         id="path8994"
         inkscape:connector-curvature="0" /></clipPath></defs><sodipodi:namedview
     pagecolor="#ffffff"
     bordercolor="#666666"
     borderopacity="1"
     objecttolerance="10"
     gridtolerance="10"
     guidetolerance="10"
     inkscape:pageopacity="0"
     inkscape:pageshadow="2"
     inkscape:window-width="1309"
     inkscape:window-height="744"
     id="namedview4"
     showgrid="false"
     inkscape:zoom="0.43915053"
     inkscape:cx="114.5992"
     inkscape:cy="380.00001"
     inkscape:window-x="57"
     inkscape:window-y="24"
     inkscape:window-maximized="1"
     inkscape:current-layer="g10" /><g
     id="g10"
     inkscape:groupmode="layer"
     inkscape:label="womens day google plus templates"
     transform="matrix(1.25,0,0,-1.25,0,760)"><g
       id="g8794" /><g
       id="g8876"
       transform="translate(233.78018,403.62035)"><path
         inkscape:connector-curvature="0"
         id="path8878"
         style="fill:#ffffff;fill-opacity:1;fill-rule:nonzero;stroke:none"
         d="m 0,0 c -18.103,-4.152 -36.993,-10.47 -54.473,-20.987 -17.549,-10.271 -34.068,-23.664 -48.225,-39.74 -14.378,-15.713 -25.561,-35.317 -30.092,-56.771 -0.358,-1.761 -0.603,-3.502 -0.917,-5.269 -1.027,5.29 -1.762,10.535 -2.099,15.695 -0.648,11.631 0.114,22.885 2.771,32.75 2.411,9.869 5.803,18.71 9.71,26.03 3.729,7.394 8.038,13.42 11.721,17.974 3.574,4.553 6.943,8.014 9.4,10.247 1.249,1.183 2.166,2.053 2.789,2.677 2.568,1.743 5.29,3.375 8.262,4.779 9.576,5.314 21.031,8.664 33.265,11.476 6.183,0.846 12.522,2.056 19.066,2.727 6.606,0.22 13.281,0.756 20.114,0.825 C -10.337,2.009 -1.806,1.72 6.831,1.362 4.577,0.896 2.277,0.582 0,0 m -29.736,-197.176 9.733,4.419 c 3.147,1.519 5.849,3.976 8.728,5.893 l 4.242,3.126 c 1.808,1.206 2.457,2.453 3.729,3.729 2.277,2.39 4.576,4.843 6.272,7.99 1.163,1.988 2.168,3.955 3.082,5.964 3.417,-3.708 6.341,-8.261 8.507,-13.51 4.352,-12.074 3.526,-28.552 -7.124,-40.878 -7.634,-10.044 -19.043,-18.348 -32.484,-22.68 -0.621,2.412 -1.383,4.73 -2.365,7.057 -2.054,5.537 -4.574,10.672 -7.456,15.18 -4.959,7.814 -10.94,13.974 -16.789,18.842 7.502,0.715 14.935,2.411 21.925,4.868 m -63.16,14.556 c 4.935,-3.306 9.733,-6.567 14.401,-9.731 -0.761,0.264 -1.521,0.619 -2.276,0.842 -3.126,1.255 -6.477,2.012 -9.088,4.067 l -8.348,5.086 c -2.614,2.259 -5.068,4.737 -7.615,7.081 -1.898,1.833 -3.635,3.796 -5.336,5.738 6.026,-4.734 12.235,-9.199 18.262,-13.083 m 56.66,-63.088 c -18.283,-2.725 -38.13,2.673 -53.737,15.447 -15.872,12.367 -28.418,29.69 -35.809,49.449 -3.662,10.178 -5.869,20.968 -6.585,31.879 0.448,-0.561 0.804,-1.004 1.251,-1.536 5.198,-10.631 11.899,-20.679 20.918,-29.472 2.568,-2.37 4.932,-4.826 7.657,-7.057 l 9.49,-5.935 c 3.078,-2.189 6.63,-3.13 10.068,-4.419 3.436,-1.21 6.765,-2.997 10.448,-3.265 2.235,-0.578 4.51,-0.891 6.766,-1.159 1.115,-0.891 2.316,-1.829 3.438,-2.721 9.195,-7.906 17.547,-16.075 23.776,-25.006 3.303,-4.872 5.914,-10.003 7.612,-15.185 -1.717,-0.443 -3.485,-0.757 -5.293,-1.02 M -143.91,-85.593 c 1.249,9.287 4.179,18.147 8.148,26.166 -1.514,-4.202 -2.879,-8.621 -3.994,-13.309 -2.746,-10.476 -3.552,-22.42 -2.836,-34.805 0.09,-0.845 0.203,-1.808 0.291,-2.678 -2.099,8.19 -2.812,16.565 -1.609,24.626 m 280.517,415.291 c 1.497,2.949 2.279,4.554 2.279,4.554 0,0 -0.942,-1.496 -2.635,-4.353 -1.761,-2.812 -3.976,-7.144 -6.229,-12.97 -1.988,-5.851 -3.819,-13.305 -4.309,-22.056 -0.536,-8.772 0.603,-18.71 3.256,-29.069 2.593,-10.492 6.812,-21.366 11.903,-32.438 5.293,-11.051 11.524,-22.28 17.723,-33.846 6.121,-11.629 12.639,-23.532 15.721,-36.391 3.033,-12.813 3.794,-26.767 0.71,-39.716 C 171.908,110.531 164.138,98.701 153.083,91.22 142.122,83.609 128.35,80.416 115.62,81.822 103.008,83.72 90.551,88.897 83.607,98.385 c -7.144,9.513 -7.477,21.613 -5.849,31.682 3.75,20.516 12.86,36.076 19.133,46.413 3.683,5.941 6.722,10.204 8.595,12.794 3.729,3.08 9.199,5.536 17.417,6.697 0,0 -12.591,-2.949 -19.738,-12.056 0.981,0.402 1.984,0.647 2.814,0.737 19.734,1.115 29.67,17.482 29.67,17.482 -21.523,7.678 -30.5,-3.909 -34.135,-12.726 -1.764,-2.724 -4.24,-6.52 -7.121,-11.409 -3.085,-5.38 -6.655,-12.014 -10.269,-19.869 -3.484,-7.906 -7.059,-17.08 -8.843,-27.663 -1.652,-10.403 -1.427,-23.217 6.227,-33.62 7.546,-10.382 20.606,-15.427 33.669,-17.769 13.506,-2.034 27.949,0.936 40.34,8.258 6.742,3.928 12.637,9.511 17.322,16.009 -0.489,-2.3 -0.981,-4.692 -1.517,-7.057 -0.803,-2.544 -1.785,-5.221 -2.72,-7.881 -0.94,-2.635 -1.656,-5.449 -2.903,-8.035 -1.295,-2.57 -2.545,-5.157 -3.93,-7.837 -2.321,-5.471 -6.32,-10.049 -9.737,-15.116 -3.903,-4.666 -7.965,-9.356 -12.614,-13.637 -4.956,-3.955 -9.683,-8.287 -15.58,-11.298 C 118.435,28.78 112.182,26.21 105.979,23.619 99.907,20.784 92.984,19.556 86.533,17.346 79.658,16.096 72.826,14.602 65.927,13.621 58.937,12.972 51.95,11.651 44.939,11.405 37.952,11.187 31.189,10.601 24.063,10.716 9.488,11.07 -4.798,11.43 -18.708,11.765 -25.787,11.543 -32.821,11.07 -39.651,10.448 -46.438,9.4 -53.09,7.948 -59.519,6.719 -72.223,3.193 -84.145,-0.871 -94.125,-6.987 c -2.544,-1.296 -4.955,-2.815 -7.254,-4.355 -0.513,-0.18 -1.051,-0.356 -1.474,-0.76 0,0 -0.669,-0.645 -1.831,-1.72 -3.346,-2.654 -6.34,-5.445 -9.042,-8.26 -1.206,-1.05 -2.432,-2.053 -3.683,-3.191 -7.435,-6.763 -14.914,-14.912 -21.364,-24.737 -6.452,-9.664 -11.677,-21.32 -13.598,-34.361 -2.21,-12.945 -0.468,-26.986 4.801,-39.714 3.147,-7.659 7.502,-14.732 12.545,-21.345 0.448,-12.384 2.815,-24.756 7.033,-36.211 7.614,-20.093 20.54,-37.772 36.747,-50.232 15.829,-12.815 36.661,-18.486 55.235,-15.489 1.873,0.176 3.729,0.577 5.558,1.026 1.095,-3.708 1.586,-7.413 1.43,-11.071 -0.181,-9.199 -4.089,-17.373 -8.754,-23.534 -4.577,-6.252 -9.978,-10.806 -14.487,-14.288 -9.133,-6.876 -15.252,-9.601 -15.252,-9.601 0,0 1.633,0.49 4.445,1.783 2.836,1.21 6.965,3.085 11.855,6.253 4.955,3.172 10.785,7.32 16.256,13.485 1.917,2.28 3.858,4.825 5.556,7.596 -0.49,-2.905 -1.095,-5.943 -1.919,-8.843 -3.106,-11.079 -9.913,-21.119 -19.401,-28.356 -9.377,-7.186 -21.299,-11.476 -33.332,-11.25 -11.945,-0.355 -24.111,3.934 -32.013,12.054 -8.306,8.128 -11.88,20.098 -10.63,31.029 l 0.514,4.111 c -0.044,0.715 0.827,2.677 1.162,3.887 0.492,1.427 1.006,2.809 1.697,3.705 0.624,1.025 1.182,2.096 1.854,3.168 3.145,4.152 7.32,7.232 11.876,9.287 4.733,1.565 9.714,2.678 14.401,1.653 l 1.762,-0.18 c 0.134,0.092 1.116,-0.397 1.563,-0.532 1.183,-0.451 2.656,-0.627 3.372,-1.209 0.87,-0.67 1.854,-1.025 2.701,-1.649 l 2.476,-2.147 c 6.006,-6.383 7.102,-15.854 3.752,-22.232 -1.653,-2.947 -4.487,-5.316 -7.389,-6.517 -2.902,-1.209 -6.05,-1.075 -8.527,-0.674 -5.425,1.293 -7.77,5.583 -8.373,8.442 -0.49,2.896 0.09,4.511 -0.067,4.511 0.157,0 -0.626,-1.523 -0.379,-4.603 0.199,-2.009 1.386,-5.135 4.104,-7.458 -0.109,0.042 -0.153,0.042 -0.266,0.088 0,0 7.458,-10.133 10.248,-6.647 0.491,0.624 -1.963,4.328 3.126,0.624 5.089,-3.708 7.031,0.892 5.87,2.452 -1.136,1.386 4.959,-4.109 6.721,0.804 0.471,1.344 0.268,3.708 -4.622,3.177 -1.046,-0.138 -2.143,-0.498 -3.281,-0.896 2.01,1.293 3.908,2.947 5.405,5.358 2.521,4.014 3.413,9.555 2.455,15 0.043,-0.357 0.154,-0.624 0.267,-0.98 0,0 2.947,19.646 -3.996,18.842 -1.229,-0.088 -2.591,-7.056 -4.243,2.767 -1.54,9.869 -8.841,6.742 -9.199,3.796 -0.399,-2.855 -0.958,10.09 -8.393,6.562 -2.009,-0.937 -4.397,-3.75 1.672,-8.617 1.609,-1.247 3.708,-2.365 5.943,-3.391 l -1.854,0.315 c -5.56,1.469 -11.543,0.393 -17.279,-1.256 -5.65,-2.185 -10.874,-5.801 -15.004,-10.802 -1.744,-2.637 -4.039,-5.851 -4.667,-8.53 -0.513,-1.611 -1.071,-2.368 -1.54,-4.604 l -0.714,-4.817 c -1.609,-12.811 2.457,-27.146 12.169,-37.015 9.756,-10.182 23.775,-14.916 37.44,-14.778 13.704,0 27.214,5.09 37.793,13.306 10.561,8.257 18.174,20.092 21.411,32.28 3.771,13.665 3.415,27.238 0.605,39.468 -0.157,0.765 -0.316,1.565 -0.494,2.322 13.774,4.512 25.453,13.042 33.151,23.355 1.499,1.43 2.661,3.213 3.529,4.955 0.939,1.741 2.099,3.306 2.814,5.093 1.273,3.838 2.857,7.408 2.97,11.203 1.272,7.505 -0.314,14.603 -2.367,20.898 -2.344,5.357 -5.491,10.137 -9.088,13.891 4.378,10.245 5.093,21.403 2.703,31.343 -0.447,1.494 -0.713,3.076 -1.161,4.508 l -1.875,4.193 c -1.14,2.817 -2.478,5.496 -4.399,7.751 -1.695,2.165 -3.35,5.069 -5.491,6.743 -1.898,1.875 -4.198,3.482 -6.744,4.888 -9.685,5.718 -20.805,4.646 -28.642,1.047 -7.969,-3.566 -13.573,-9.953 -14.58,-16.293 -1.228,-6.182 0.268,-11.095 1.877,-13.933 1.696,-2.88 2.903,-4.244 2.903,-4.244 0,0 -1.207,1.41 -2.679,4.29 -1.496,2.9 -2.768,7.855 -1.341,13.752 1.226,6.006 6.786,11.761 14.512,14.846 7.526,3.122 17.951,3.549 26.59,-1.808 8.818,-5.09 14.937,-15.272 17.615,-26.456 2.03,-8.864 1.16,-18.8 -2.524,-27.618 -3.641,2.992 -7.589,5.202 -11.476,6.186 -9.552,1.942 -17.01,-1.473 -20.874,-4.466 -4.105,-3.039 -5.38,-5.671 -5.534,-5.491 0.154,-0.18 1.473,2.411 5.557,5.336 3.909,3.014 11.409,6.27 20.695,4.127 3.909,-0.979 7.814,-3.235 11.365,-6.404 -0.963,-2.189 -2.143,-4.398 -3.439,-6.478 -1.362,-2.608 -3.683,-5.089 -6.049,-7.433 -1.162,-1.047 -2.365,-2.813 -3.461,-3.323 l -4.039,-2.75 c -2.794,-1.787 -5.316,-4.018 -8.262,-5.403 l -9.197,-3.93 c -8.689,-2.675 -18.038,-4.416 -27.305,-4.019 -8.954,7.639 -18.775,14.825 -28.73,21.346 -10.942,7.37 -20.878,14.933 -29.941,23.998 -4.487,4.491 -8.641,9.312 -12.257,14.335 -0.803,2.298 -1.496,4.553 -2.119,6.876 0.401,3.863 0.937,7.835 1.785,11.694 4.308,21.014 14.981,40.166 29.225,55.86 13.883,15.896 30.116,29.228 47.44,39.541 17.233,10.469 35.946,16.833 53.85,20.987 4.84,1.205 9.643,2.029 14.374,2.701 2.97,-0.11 5.895,-0.272 8.865,-0.379 7.188,-0.249 14.51,0.269 21.878,0.329 7.366,0.228 14.603,1.408 21.879,2.034 7.303,1.12 14.535,2.769 21.7,4.242 6.921,2.456 14.199,3.955 20.763,7.123 6.653,2.924 13.239,5.803 19.129,9.911 6.345,3.371 11.499,8.262 16.836,12.681 2.812,2.078 4.687,5.023 7.056,7.526 2.166,2.611 4.71,4.821 6.315,7.723 3.529,5.739 7.636,10.895 9.782,16.898 1.291,2.905 2.588,5.761 3.881,8.574 1.12,2.837 1.785,5.872 2.639,8.709 0.804,2.857 1.647,5.648 2.451,8.417 0.491,2.835 0.897,5.602 1.383,8.325 1.167,5.871 1.609,11.499 1.923,16.879 0,0.136 0.039,0.268 0.134,0.422 0,-2.789 -0.134,-5.669 -0.222,-8.527 C 179.944,88.897 175.252,61.308 160.384,36.366 152.995,24.019 142.946,12.725 130.56,3.907 c -12.236,-8.75 -26.727,-14.87 -41.617,-18.464 -14.914,-3.976 -30.387,-4.685 -45.631,-6.43 -15.316,-1.138 -30.141,-4.353 -44.251,-7.923 -6.918,-2.369 -13.887,-4.223 -20.357,-6.968 -6.299,-3.238 -12.841,-5.536 -18.422,-9.307 -5.491,-3.885 -11.384,-6.855 -15.847,-11.434 -2.37,-2.098 -4.669,-4.218 -6.9,-6.223 -2.078,-2.239 -3.886,-4.62 -5.784,-6.839 -7.613,-8.973 -12.123,-18.976 -15.339,-27.861 -2.766,-9.065 -4.373,-17.256 -4.664,-24.061 -0.915,-13.577 0.893,-21.32 0.893,-21.32 0,0 -1.695,7.764 -0.423,21.32 0.356,6.692 2.166,14.799 5.111,23.797 3.392,8.685 7.991,18.394 15.537,27.171 1.922,2.185 3.732,4.579 5.738,6.692 2.256,1.988 4.512,4.02 6.877,6.142 4.398,4.466 10.249,7.37 15.653,11.12 5.558,3.639 12.051,5.889 18.283,9.043 6.429,2.72 13.328,4.486 20.202,6.784 14.044,3.415 28.755,6.452 43.937,7.548 15.092,1.584 30.741,2.187 46.013,6.138 15.203,3.754 29.828,10.069 42.42,19.177 12.499,8.998 22.703,20.696 30.138,33.354 14.998,25.474 19.373,53.291 20.405,76.463 0.176,4.667 0.222,9.065 0.134,13.374 0.134,0.649 0.356,1.27 0.444,1.852 0.088,-1.852 0.18,-3.773 0.226,-5.713 0.355,-4.108 0,-8.417 -0.226,-12.818 -0.088,-4.44 -0.222,-9.019 -0.892,-13.685 -0.944,-9.285 -2.812,-18.974 -5.357,-28.799 -1.517,-4.889 -2.68,-9.89 -4.825,-14.709 -1.831,-4.913 -3.882,-9.716 -6.477,-14.381 C 160.872,27.395 154.577,18.484 147.705,10.206 133.975,-6.431 116.56,-19.98 98.655,-29.806 80.795,-39.825 62.8,-46.793 47.039,-51.684 31.277,-56.395 17.75,-59.452 8.214,-61.172 6.071,-61.503 4.131,-61.863 2.388,-62.13 c 7.146,3.057 1.092,11.003 -4.955,2.521 6.763,9.442 -5.739,12.326 -3.864,0.892 -1.875,11.434 -12.794,4.689 -3.327,-2.12 -9.467,6.809 -12.367,-5.713 -0.914,-3.796 -11.453,-1.917 -4.688,-12.837 2.076,-3.327 -6.764,-9.51 5.783,-12.389 3.817,-0.934 1.966,-11.455 12.817,-4.738 3.394,2.118 7.902,-5.692 11.208,2.189 5.248,3.729 1.428,0.067 2.924,0.159 4.577,0.335 9.643,0.958 23.552,2.592 39.804,6.675 16.184,4.24 35.139,10.028 53.693,20.092 18.706,9.822 37.171,23.644 51.93,41.015 7.184,8.814 13.573,18.347 18.395,28.462 2.676,4.891 4.727,10.093 6.518,15.245 2.141,5.05 3.3,10.342 4.82,15.473 2.64,10.292 3.883,20.521 4.469,30.14 0.494,4.824 0.36,9.511 0.268,14.019 -0.134,4.56 0.042,8.954 -0.54,13.152 -0.665,8.35 -1.427,15.983 -2.9,22.682 -0.18,1.007 -0.356,1.921 -0.49,2.836 -0.267,6.095 -1.209,12.122 -2.5,17.994 -3.75,14.176 -10.895,26.233 -17.147,37.818 -12.993,22.973 -25.315,44.161 -31.279,64.095 -6.318,19.916 -5.221,37.728 -1.829,49.431 1.72,5.869 3.549,10.358 4.955,13.281" /></g><g
       id="g8880"
       transform="translate(399.39158,523.79805)"><path
         inkscape:connector-curvature="0"
         id="path8882"
         style="fill:#ffffff;fill-opacity:1;fill-rule:nonzero;stroke:none"
         d="M 0,0 C -19.689,-0.136 -30.544,-16.009 -30.544,-16.009 1.557,-29.27 6.964,3.235 6.964,3.235 6.918,3.147 6.918,3.147 6.87,3.101 4.147,-2.814 -2.239,-9.109 -17.461,-10.497 c 0,0 12.721,2.325 20.313,11.098 C 1.829,0.201 0.889,0 0,0" /></g><g
       id="g8884"
       transform="translate(328.03708,502.00505)"><path
         inkscape:connector-curvature="0"
         id="path8886"
         style="fill:#ffffff;fill-opacity:1;fill-rule:nonzero;stroke:none"
         d="M 0,0 C 0,1.097 0.199,2.057 0.577,2.861 8.013,21.123 -2.501,37.22 -2.501,37.22 -27.058,12.684 0.801,-4.775 0.801,-4.775 l 0,0.178 C -3.639,0.157 -7.011,8.507 -2.478,23.021 -2.478,23.021 -5.136,10.384 0,0" /></g><g
       id="g8888"
       transform="translate(186.24848,267.86245)"><path
         inkscape:connector-curvature="0"
         id="path8890"
         style="fill:#ffffff;fill-opacity:1;fill-rule:nonzero;stroke:none"
         d="m 0,0 c 0.381,0.645 0.827,1.18 1.272,1.54 10.472,8.86 9.199,22.057 9.199,22.057 -22.908,-7.191 -11.496,-26.811 -11.496,-26.811 0,0 0.046,0.017 0.046,0.109 C -2.143,1.247 -1.494,7.362 5.939,14.841 5.939,14.841 0.18,7.969 0,0" /></g><g
       id="g8892"
       transform="translate(142.42428,403.59935)"><path
         inkscape:connector-curvature="0"
         id="path8894"
         style="fill:#ffffff;fill-opacity:1;fill-rule:nonzero;stroke:none"
         d="m 0,0 c 8.373,2.253 15.494,4.6 21.32,6.74 5.225,2.009 9.333,3.75 12.326,5.046 9.31,2.031 22.345,8.864 18.442,31.592 0,0 -17.84,-7.123 -22.259,-26.346 -0.225,-0.85 -0.605,-1.741 -1.187,-2.635 C 38.823,19.87 43.87,31.81 43.87,31.81 41.346,23.864 37.887,18.93 34.292,15.692 31.388,14.309 26.702,12.074 20.271,9.442 8.999,5.02 -7.881,-1.295 -28.755,-1.607 c -10.178,0.222 -22.035,2.524 -30.207,11.16 -8.167,8.393 -11.206,21.546 -10.894,34.315 0.759,12.748 6.165,25.833 15.563,35.365 9.241,9.622 22.192,15.335 35.451,16.162 13.286,0.914 26.878,-2.256 39.003,-7.392 12.145,-5.2 22.795,-13.639 33.197,-21.61 C 63.717,58.267 73.74,50.227 83.72,43.175 93.832,36.32 103.813,30.272 113.683,26.007 c 9.797,-4.376 19.377,-7.188 28.085,-8.17 8.749,-0.981 16.364,-0.401 22.502,0.557 6.117,1.229 10.804,2.677 13.887,3.951 3.082,1.231 4.687,1.877 4.687,1.877 0,0 -1.695,-0.538 -4.844,-1.496 -3.192,-0.917 -7.948,-1.965 -13.954,-2.704 -12.1,-1.316 -29.826,0.607 -48.4,10.16 C 97.027,39.425 78.183,55.141 57.711,71.844 47.396,80.035 36.68,89.077 23.375,95.125 9.98,100.574 -4.6,104.056 -19.512,102.359 -34.29,100.641 -48.4,93.409 -57.688,82.289 -66.998,71.306 -72.419,57.528 -72.692,43.937 -72.533,30.692 -69.787,16.921 -60.812,7.722 -51.882,-1.607 -39.268,-3.93 -28.755,-4.043 -18.015,-4.112 -8.371,-2.166 0,0" /></g><g
       id="g8896"
       transform="translate(280.86468,438.19895)"><path
         inkscape:connector-curvature="0"
         id="path8898"
         style="fill:#ffffff;fill-opacity:1;fill-rule:nonzero;stroke:none"
         d="M 0,0 C -1.141,1.72 -1.986,3.375 -2.457,4.914 -11.945,40.434 -45.632,52.51 -45.632,52.51 -54.409,-11.652 6.719,-6.138 6.719,-6.138 6.562,-6.048 6.494,-5.914 6.406,-5.849 -5.493,-3.815 -19.937,4.782 -29.515,31.571 -29.515,31.571 -19.313,9.737 0,0" /></g><g
       id="g8900"
       transform="translate(123.00288,496.49335)"><path
         inkscape:connector-curvature="0"
         id="path8902"
         style="fill:#ffffff;fill-opacity:1;fill-rule:nonzero;stroke:none"
         d="m 0,0 c 0.088,0.046 0.088,0.046 0.134,0.065 0,0 -32.907,0.157 -25.273,-33.667 0,0 17.436,7.948 20.92,27.416 0.132,0.827 0.513,1.741 1.049,2.704 -9.867,-6.031 -14.312,-18.219 -14.312,-18.219 C -13.596,-6.964 -6.299,-1.653 0,0" /></g><g
       id="g8904"
       transform="translate(80.651784,425.27655)"><path
         inkscape:connector-curvature="0"
         id="path8906"
         style="fill:#ffffff;fill-opacity:1;fill-rule:nonzero;stroke:none"
         d="m 0,0 c 0,0 12.5,-30.475 40.854,-10.383 0,0 -14.043,13.064 -33.331,8.753 C 6.673,-1.808 5.669,-1.808 4.6,-1.655 13.998,-8.46 26.88,-7.925 26.88,-7.925 11.809,-10.005 4.085,-5.271 0.222,-0.046 0.157,-0.046 0.111,0 0,0" /></g><g
       id="g8908"
       transform="translate(25.195284,158.22135)"><path
         inkscape:connector-curvature="0"
         id="path8910"
         style="fill:#ffffff;fill-opacity:1;fill-rule:nonzero;stroke:none"
         d="m 0,0 c 4.957,12.589 8.952,26.609 9.869,41.479 1.092,14.825 -0.203,30.361 -3.974,45.503 -3.528,15.113 -10.761,29.979 -21.812,41.543 -0.894,0.937 -1.831,1.833 -2.745,2.704 3.614,-1.499 7.052,-3.219 10.287,-5.182 7.303,-4.465 13.734,-9.487 18.6,-15.159 4.957,-5.557 8.885,-11.229 11.655,-16.678 2.924,-5.286 4.774,-10.358 5.981,-14.443 1.272,-4.018 1.965,-7.5 2.302,-9.844 0.178,-1.319 0.331,-2.256 0.467,-2.859 C 30.562,64.83 30.429,62.465 30.073,60.146 29.27,52.152 26.543,43.891 23.241,35.365 21.208,31.255 19.29,26.924 16.99,22.771 14.378,18.662 11.921,14.422 9.176,10.271 5.472,5.403 1.718,0.355 -2.032,-4.646 -1.36,-3.127 -0.647,-1.611 0,0 m -106.536,99.438 -1.36,-7.706 c -0.335,-2.503 0.064,-5.131 0,-7.675 l 0.108,-3.843 c 0,-1.652 0.471,-2.519 0.693,-3.796 0.513,-2.389 1.007,-4.733 2.279,-7.123 0.691,-1.515 1.45,-2.9 2.274,-4.327 -3.636,-0.448 -7.612,-0.381 -11.632,0.49 -9.061,2.41 -18.66,9.688 -21.676,21.21 -2.879,8.748 -3.17,19.085 -0.224,28.954 1.654,-0.603 3.394,-1.16 5.181,-1.54 4.196,-1.046 8.327,-1.653 12.257,-1.762 6.763,-0.268 12.97,0.778 18.306,2.323 -2.724,-4.847 -4.731,-10.028 -6.206,-15.205 m 34.871,32.013 c -3.974,-1.649 -7.88,-3.148 -11.741,-4.646 0.489,0.335 0.981,0.674 1.45,1.008 2.007,1.407 3.884,3.056 6.229,3.771 l 6.496,2.993 c 2.365,0.603 4.956,1.029 7.368,1.611 1.898,0.398 3.794,0.641 5.716,0.825 -5.404,-1.633 -10.606,-3.554 -15.518,-5.562 m -61.349,-8.061 c 5.895,12.192 17.368,21.86 31.479,25.99 14.021,4.487 29.67,4.843 44.582,1.114 7.682,-1.968 15.092,-5.111 21.949,-9.221 -0.471,0 -0.96,-0.066 -1.431,-0.066 -8.548,1.226 -17.39,1.339 -26.388,-0.469 -2.501,-0.536 -4.958,-1.005 -7.456,-1.72 l -7.458,-3.236 c -2.612,-0.895 -4.688,-2.657 -6.875,-4.198 -2.145,-1.54 -4.534,-2.9 -6.229,-4.934 -1.252,-1.113 -2.411,-2.364 -3.506,-3.595 -1.048,-0.314 -2.078,-0.67 -3.105,-0.937 -8.527,-2.344 -16.919,-3.906 -24.846,-4.014 -4.308,0.108 -8.481,0.598 -12.345,1.67 0.513,1.251 1.005,2.456 1.629,3.616 M 7.925,122.03 c 5.089,-4.579 9.22,-9.978 12.369,-15.649 -1.875,2.586 -3.976,5.265 -6.34,7.856 -5.224,6.006 -12.058,11.451 -19.805,16.096 -0.534,0.36 -1.157,0.649 -1.695,0.963 5.782,-2.122 11.095,-5.156 15.471,-9.266 M 142.1,-218.613 c 1.115,-2.093 1.764,-3.21 1.764,-3.21 0,0 -0.491,1.247 -1.519,3.398 -1.005,2.227 -2.658,5.353 -5.246,9.061 -2.677,3.704 -6.431,7.86 -11.497,11.79 -5.045,3.968 -11.52,7.274 -18.865,10.04 -7.368,2.771 -15.651,4.687 -24.446,6.207 -8.819,1.431 -18.15,2.277 -27.707,3.394 -9.532,1.068 -19.398,2.055 -28.395,5.534 -8.998,3.486 -17.704,8.754 -24.201,15.945 -6.498,7.228 -10.426,16.833 -10.363,26.564 -0.063,9.735 3.731,19.34 9.85,26.392 6.318,6.877 14.619,12.28 23.172,12.497 8.707,0.314 16.12,-4.503 21.477,-9.551 10.848,-10.805 16.477,-22.683 20.114,-30.769 2.032,-4.688 3.35,-8.212 4.154,-10.489 0.266,-3.44 -0.511,-7.767 -3.17,-13.216 0,0 3.415,8.709 0.87,16.828 -0.157,-0.711 -0.425,-1.423 -0.735,-1.958 -7.437,-12.326 -1.699,-25.095 -1.699,-25.095 13.506,9.822 10.248,20.047 6.406,25.806 -0.869,2.189 -2.141,5.269 -3.928,9.019 -1.94,4.069 -4.464,8.974 -7.724,14.376 -3.281,5.408 -7.345,11.343 -12.995,16.792 -5.579,5.311 -13.393,10.404 -22.77,10.132 -9.421,-0.217 -17.838,-6.022 -24.693,-12.949 -6.787,-7.232 -10.915,-17.231 -11.652,-27.677 -0.425,-5.722 0.49,-11.568 2.501,-17.063 -1.208,1.301 -2.413,2.548 -3.639,3.846 -1.183,1.557 -2.413,3.26 -3.661,4.909 -1.186,1.654 -2.569,3.168 -3.641,5.047 -1.002,1.871 -2.029,3.704 -3.08,5.621 -2.369,3.625 -3.44,7.995 -5.066,12.058 -1.164,4.286 -2.346,8.71 -3.016,13.259 -0.314,4.65 -0.96,9.246 -0.358,14.025 0.026,4.821 1.028,9.643 2.055,14.464 0.781,4.868 2.924,9.468 4.263,14.335 2.076,4.646 3.997,9.291 6.274,13.887 2.501,4.511 4.599,9.241 7.301,13.526 2.789,4.378 5.223,8.714 8.239,12.954 6.251,8.613 12.367,17.097 18.325,25.266 2.77,4.378 5.407,8.802 7.837,13.13 2.212,4.553 4.043,9.199 6.006,13.526 3.126,9.157 5.627,17.997 6.031,26.526 0.267,2.144 0.399,4.194 0.355,6.207 0.158,0.356 0.268,0.779 0.201,1.181 0,0 -0.134,0.652 -0.312,1.854 -0.2,3.08 -0.648,6.051 -1.228,8.86 -0.136,1.117 -0.222,2.281 -0.381,3.532 -1.002,7.232 -2.833,15.113 -6.073,23.036 -3.189,7.973 -8.056,15.853 -15.089,22.416 -6.854,6.655 -16.03,11.409 -25.853,13.552 -5.983,1.252 -12.012,1.54 -18.085,1.252 -7.654,4.863 -16.052,8.504 -24.713,10.76 -15.249,3.708 -31.233,3.189 -45.432,-1.406 -14.311,-4.152 -26.323,-14.398 -32.237,-26.815 -0.625,-1.252 -1.117,-2.566 -1.584,-3.843 -2.703,0.917 -5.158,2.101 -7.282,3.734 -5.512,3.929 -8.752,9.621 -10.581,15 -1.875,5.378 -2.387,10.496 -2.634,14.623 -0.358,8.328 0.559,13.196 0.559,13.196 0,0 -0.379,-1.184 -0.783,-3.415 -0.425,-2.214 -1.027,-5.491 -1.115,-9.781 -0.135,-4.24 -0.065,-9.509 1.452,-15.381 0.49,-2.076 1.249,-4.24 2.254,-6.496 -1.629,1.608 -3.15,3.211 -4.598,4.889 -5.338,6.475 -8.618,14.665 -9.042,23.375 -0.402,8.638 1.896,17.59 6.989,24.737 4.732,7.387 12.343,12.924 20.494,14.309 8.37,1.63 17.057,-1.184 23.127,-6.431 l 2.256,-2.03 c 0.425,-0.246 1.226,-1.588 1.831,-2.299 0.693,-0.873 1.27,-1.766 1.515,-2.503 0.36,-0.824 0.829,-1.586 1.139,-2.455 1.207,-3.595 1.385,-7.432 0.715,-11.003 -1.025,-3.461 -2.364,-6.968 -4.955,-9.358 l -0.827,-0.979 c -0.046,-0.113 -0.669,-0.469 -0.96,-0.72 -0.737,-0.49 -1.496,-1.356 -2.187,-1.515 -0.692,-0.247 -1.316,-0.712 -2.074,-0.98 l -2.302,-0.606 c -6.338,-0.959 -12.501,2.322 -14.937,6.989 -1.115,2.164 -1.36,4.846 -0.845,7.077 0.468,2.256 1.826,4.148 3.101,5.47 3.013,2.721 6.586,2.344 8.531,1.541 1.94,-0.917 2.723,-1.922 2.744,-1.896 -0.021,-0.026 -0.67,1.113 -2.635,2.142 -1.272,0.737 -3.616,1.34 -6.183,0.624 0.088,0.042 0.111,0.113 0.2,0.176 0,0 -9.196,-0.331 -8.261,-3.411 0.18,-0.628 3.44,-0.649 -0.915,-2.235 -4.377,-1.453 -2.323,-4.558 -0.939,-4.512 1.344,0.139 -4.508,-1.268 -2.298,-4.353 0.605,-0.824 2.101,-1.694 3.819,1.449 0.356,0.719 0.58,1.498 0.824,2.394 -0.068,-1.763 0.181,-3.617 0.959,-5.495 1.432,-3.231 4.357,-6.006 8.082,-7.702 -0.241,0.093 -0.467,0.202 -0.714,0.314 0,0 10.606,-9.956 12.993,-5.449 0.425,0.804 -3.212,4.512 3.395,1.406 6.585,-3.122 7.702,2.545 6.138,3.972 -1.608,1.411 6.43,-3.524 7.414,2.323 0.221,1.632 -0.471,4.269 -5.937,2.591 -1.432,-0.448 -2.926,-1.252 -4.468,-2.185 l 0.961,1.025 c 3.126,2.75 5.022,6.743 6.386,10.894 1.002,4.287 0.982,8.974 -0.314,13.553 -0.87,2.098 -1.875,4.821 -3.17,6.255 -0.783,1 -1.004,1.623 -2.166,2.898 l -2.614,2.369 c -7.052,6.269 -17.389,9.754 -27.3,7.968 -10.181,-1.653 -18.867,-8.105 -24.425,-16.389 -5.648,-8.237 -8.193,-18.482 -7.546,-28.259 0.581,-9.827 4.553,-19.269 10.515,-26.233 6.699,-7.998 15.025,-13.33 23.576,-16.7 0.535,-0.267 1.048,-0.535 1.605,-0.669 -3.035,-10.179 -2.677,-20.763 0.36,-29.628 0.201,-1.494 0.824,-2.971 1.517,-4.218 0.648,-1.273 1.14,-2.608 1.921,-3.75 1.743,-2.365 3.281,-4.759 5.491,-6.45 3.953,-3.863 8.908,-5.897 13.575,-7.173 4.242,-0.846 8.348,-0.892 12.101,-0.264 4.351,-6.876 10.803,-11.919 17.792,-14.603 1.072,-0.401 2.141,-0.85 3.168,-1.205 l 3.328,-0.582 c 2.145,-0.489 4.288,-0.757 6.477,-0.531 2.008,0.088 4.396,-0.134 6.296,0.531 1.961,0.314 3.861,1.076 5.734,2.056 7.437,3.481 11.43,10.626 12.503,16.749 1.116,6.294 -0.401,12.296 -3.796,15.531 -3.191,3.261 -6.83,4.424 -9.176,4.625 -2.454,0.268 -3.727,0 -3.727,0 0,0 1.316,0.18 3.662,-0.109 2.367,-0.314 5.87,-1.544 8.817,-4.893 3.126,-3.26 4.308,-8.973 2.969,-14.865 -1.226,-5.877 -5.267,-12.305 -12.076,-15.297 -6.72,-3.215 -15.407,-2.637 -23.241,0.313 -6.161,2.452 -11.765,7.057 -15.582,12.928 3.323,0.959 6.271,2.436 8.504,4.378 5.067,4.997 6.14,10.849 5.916,14.393 -0.134,3.755 -1.184,5.625 -1.027,5.625 -0.157,0 0.85,-1.87 0.96,-5.553 0.157,-3.616 -0.981,-9.422 -6.07,-14.159 -2.233,-1.984 -5.205,-3.369 -8.551,-4.194 -0.963,1.494 -1.833,3.034 -2.524,4.713 -1.05,1.917 -1.519,4.374 -1.987,6.692 -0.156,1.209 -0.691,2.662 -0.537,3.532 l -0.023,3.571 c 0.135,2.364 -0.198,4.804 0.181,7.165 l 1.452,7.169 c 1.961,6.382 4.777,12.656 8.885,18.126 8.26,2.21 16.653,5.228 24.714,8.484 8.93,3.574 17.593,6.387 26.834,8.128 4.554,0.87 9.153,1.406 13.707,1.427 1.674,-0.423 3.373,-0.963 4.98,-1.54 2.187,-1.829 4.33,-3.796 6.339,-5.939 C -6.498,115.957 0.646,101.581 4.242,86.484 8.08,71.551 9.352,56.304 8.417,41.614 7.567,26.882 3.683,12.995 -1.183,0.443 -2.48,-2.946 -3.951,-6.119 -5.537,-9.241 c -1.296,-1.833 -2.568,-3.487 -3.884,-5.228 -3.127,-4.281 -5.849,-8.881 -8.842,-13.35 -2.877,-4.508 -5.2,-9.38 -7.811,-14.068 -2.348,-4.775 -4.334,-9.906 -6.408,-14.727 -1.432,-5.228 -3.482,-10.141 -4.311,-15.452 -1.004,-5.224 -1.986,-10.447 -1.942,-15.624 -0.536,-5.227 0.224,-10.363 0.693,-15.364 0.067,-2.545 1.069,-4.956 1.607,-7.366 0.693,-2.365 0.983,-4.914 2.032,-7.053 2.009,-4.423 3.436,-9.111 6.163,-12.861 1.226,-1.967 2.387,-3.888 3.593,-5.809 1.205,-1.917 2.745,-3.528 4.085,-5.269 1.408,-1.608 2.768,-3.302 4.086,-4.905 1.518,-1.427 3.014,-2.909 4.466,-4.29 3.013,-3.122 6.226,-5.759 9.352,-8.078 0.046,-0.138 0.113,-0.221 0.178,-0.36 -1.626,1.252 -3.304,2.415 -4.999,3.704 -13.395,10.271 -28.042,24.472 -36.927,43.674 -4.376,9.592 -7.033,20.402 -7.211,31.436 -0.224,11.023 2.078,22.231 6.054,32.677 3.769,10.581 9.73,20.228 15.021,30.139 5.604,9.688 9.825,19.959 13.462,29.962 1.429,5.136 3.216,10.133 4.221,15.088 0.692,5.181 2.01,10.049 2.01,15.005 0,4.825 0.603,9.6 -0.313,14.246 -0.291,2.277 -0.603,4.508 -0.871,6.738 -0.491,2.147 -1.207,4.244 -1.762,6.299 -2.258,8.349 -6.364,15.134 -10.448,20.742 -4.288,5.424 -8.53,9.773 -12.55,12.744 -7.791,6.207 -13.194,8.262 -13.194,8.262 0,0 5.359,-2.164 13.014,-8.508 3.932,-3.014 8.017,-7.43 12.215,-12.971 3.838,-5.579 7.77,-12.409 9.936,-20.562 0.556,-2.076 1.226,-4.106 1.672,-6.27 0.268,-2.142 0.558,-4.378 0.849,-6.608 0.869,-4.558 0.224,-9.287 0.224,-14.021 -0.09,-4.955 -1.452,-9.735 -2.099,-14.736 -1.029,-5.048 -2.835,-9.911 -4.241,-15.046 -3.775,-9.823 -8.038,-20.002 -13.666,-29.511 -5.269,-9.781 -11.406,-19.515 -15.292,-30.234 -4.039,-10.76 -6.272,-22.236 -5.983,-33.486 0.268,-11.292 3.08,-22.279 7.615,-31.967 9.151,-19.558 24.109,-33.713 37.617,-43.85 2.702,-2.146 5.403,-3.971 8.015,-5.671 0.333,-0.309 0.603,-0.715 0.935,-1.029 -1.18,0.72 -2.344,1.478 -3.528,2.231 -2.632,1.477 -5.066,3.491 -7.678,5.449 -2.591,1.88 -5.311,3.755 -7.835,6.253 -5.225,4.29 -10.27,9.471 -15.137,15.092 -2.342,2.905 -4.845,5.671 -6.854,8.931 -2.21,3.168 -4.242,6.383 -6.006,9.911 -3.794,6.743 -6.583,14.201 -8.728,21.788 -4.33,15.143 -5.313,31.21 -3.775,46.039 1.341,14.954 4.557,28.665 8.127,40.094 3.686,11.523 7.436,20.898 10.338,27.322 0.669,1.528 1.27,2.817 1.808,3.888 -1.097,-5.537 6.184,-5.09 3.595,2.013 2.88,-7.994 9.823,-1.657 2.122,1.917 7.701,-3.574 8.103,5.805 0.132,2.9 7.971,2.905 1.586,9.827 -1.965,2.101 3.551,7.726 -5.759,8.166 -2.855,0.135 -2.904,8.031 -9.845,1.652 -2.126,-1.922 -7.719,3.574 -8.125,-5.713 -0.152,-2.854 -6.722,-2.461 -3.305,-7.68 0.088,-4.692 -0.538,-0.933 -1.074,-1.875 -1.674,-2.946 -3.395,-6.207 -8.17,-15.226 -12.479,-26.748 -4.087,-11.472 -8.463,-25.225 -10.049,-40.672 -1.785,-15.319 -1.161,-32.152 3.196,-48.223 2.41,-7.948 5.445,-15.758 9.552,-22.818 1.899,-3.617 4.131,-7.015 6.475,-10.183 2.189,-3.478 4.868,-6.383 7.345,-9.287 5.135,-5.889 10.738,-10.891 16.319,-15.176 2.703,-2.281 5.606,-4.198 8.372,-5.989 2.771,-1.871 5.36,-3.75 8.082,-5.178 5.336,-3.034 10.248,-5.713 14.891,-7.588 0.647,-0.313 1.296,-0.581 1.942,-0.895 3.796,-2.277 7.77,-4.243 11.857,-5.893 10.068,-3.574 20.249,-4.332 29.845,-5.269 19.225,-1.695 37.084,-3.031 51.573,-7.634 14.557,-4.508 24.871,-12.501 30.519,-19.378 2.769,-3.441 4.732,-6.433 5.939,-8.533" /></g><g
       id="g8912"
       transform="translate(115.11958,-41.72585)"><path
         inkscape:connector-curvature="0"
         id="path8914"
         style="fill:#ffffff;fill-opacity:1;fill-rule:nonzero;stroke:none"
         d="m 0,0 c -15.627,2.457 -30.92,-6.249 -30.92,-6.249 17.059,11.874 29.271,10.895 37.219,7.007 0.088,-0.042 0.176,0 0.289,0 0,0 -34.004,29.292 -55.991,-12.585 0,0 25.137,-7.195 45.856,9.952 C -2.634,-1.159 -1.427,-0.531 0,0" /></g><g
       id="g8916"
       transform="translate(29.080984,8.77805)"><path
         inkscape:connector-curvature="0"
         id="path8918"
         style="fill:#ffffff;fill-opacity:1;fill-rule:nonzero;stroke:none"
         d="M 0,0 C 8.057,11.97 3.014,25.003 3.014,25.003 -18.221,11.162 -0.937,-5.5 -0.937,-5.5 l 0,0.139 c -2.48,4.109 -3.596,10.538 1.895,20.231 0,0 -3.883,-8.576 -1.785,-16.842 C -0.603,-1.21 -0.36,-0.536 0,0" /></g><g
       id="g8920"
       transform="translate(45.489184,60.79655)"><path
         inkscape:connector-curvature="0"
         id="path8922"
         style="fill:#ffffff;fill-opacity:1;fill-rule:nonzero;stroke:none"
         d="m 0,0 c 0.624,-0.452 1.139,-0.983 1.474,-1.607 7.947,-12.016 21.968,-12.28 21.968,-12.28 -4.667,24.952 -26.725,15.356 -26.725,15.356 0.067,0 0.113,0 0.157,-0.042 4.712,0.712 11.118,-0.716 17.971,-9.513 0,0 -6.472,6.918 -14.845,8.086" /></g><g
       id="g8924"
       transform="translate(131.99898,-45.20835)"><path
         inkscape:connector-curvature="0"
         id="path8926"
         style="fill:#ffffff;fill-opacity:1;fill-rule:nonzero;stroke:none"
         d="m 0,0 -0.492,0 c -1.36,0.088 -2.766,-0.31 -4.064,-0.983 -1.249,-0.762 -2.366,-1.784 -3.191,-3.168 -0.291,-0.716 -0.76,-1.738 -0.78,-2.278 -0.068,-0.447 -0.179,-0.447 -0.179,-1.025 l 0,-1.247 c 0.132,-3.042 1.585,-6.345 4.284,-8.308 2.815,-2.096 6.232,-2.41 9.377,-1.921 3.193,0.49 6.096,2.236 8.216,4.6 0.558,0.582 1.027,1.113 1.385,1.875 0.402,0.665 0.871,1.247 1.095,2.055 0.311,0.803 0.602,1.561 0.759,2.281 l 0.312,1.913 c 0.111,1.694 -0.088,2.95 -0.113,4.382 -0.291,1.335 -0.734,2.632 -1.071,3.833 -0.559,1.21 -1.093,2.323 -1.695,3.398 -0.76,0.934 -1.452,1.829 -2.187,2.721 -0.829,0.67 -1.63,1.386 -2.392,2.051 C 8.483,10.853 7.569,11.162 6.81,11.564 5.292,12.59 3.637,12.728 2.523,13.13 1.295,13.347 0.36,13.347 -0.335,13.394 l -0.981,0 c 0,0 1.36,-0.264 3.683,-0.98 1.004,-0.67 2.431,-0.937 3.662,-2.101 C 6.698,9.823 7.481,9.421 8.061,8.71 8.661,8.082 9.289,7.366 9.957,6.608 10.495,5.855 11.028,4.956 11.608,4.064 11.966,3.081 12.414,2.102 12.813,1.118 12.991,0 13.261,-1.025 13.372,-2.23 c -0.044,-1.118 0.09,-2.457 -0.044,-3.349 l -0.404,-1.875 c -0.196,-0.623 -0.377,-1.029 -0.624,-1.565 -0.132,-0.54 -0.535,-0.937 -0.822,-1.473 -0.337,-0.444 -0.693,-0.938 -1.097,-1.381 -1.563,-1.611 -3.729,-2.858 -6.095,-3.265 -2.321,-0.402 -4.822,-0.084 -6.452,1.117 -1.787,1.34 -2.946,3.395 -3.101,5.446 -0.247,2.285 0.644,3.975 2.23,5.139 0.781,0.356 1.677,0.804 2.568,0.804 l 0.314,0.088 c -0.113,0.046 0.199,0 0.31,0 C 0.36,-2.632 0.76,-2.632 0.892,-2.72 1.182,-2.767 1.517,-2.942 1.9,-3.172 3.237,-4.063 3.928,-5.759 3.459,-7.19 3.149,-8.396 1.81,-9.061 0.892,-9.199 c -1.361,0.138 -1.721,0.803 -2.143,1.34 -0.199,0.628 -0.269,0.937 -0.269,0.937 0,0 0.047,-0.309 0.07,-1.067 0.178,-0.273 0.199,-0.762 0.621,-1.072 0.383,-0.498 0.94,-0.719 1.475,-0.895 0.806,0.046 1.541,-0.047 2.3,0.397 0.76,0.277 1.608,1.255 1.965,1.971 C 5.717,-5.759 5.246,-3.08 3.26,-1.339 2.748,-0.983 2.187,-0.628 1.429,-0.355 1.05,-0.176 0.873,-0.176 0.559,-0.088 0.379,-0.088 0.425,-0.046 0,0" /></g><g
       id="g8928"
       transform="translate(-54.618216,367.63105)"><path
         inkscape:connector-curvature="0"
         id="path8930"
         style="fill:#ffffff;fill-opacity:1;fill-rule:nonzero;stroke:none"
         d="m 0,0 c 8.352,2.235 15.471,4.6 21.322,6.742 5.225,1.987 9.31,3.753 12.346,5.046 9.263,2.076 22.323,8.931 18.418,31.59 0,0 -17.836,-7.121 -22.259,-26.342 -0.202,-0.875 -0.624,-1.787 -1.181,-2.658 10.179,5.466 15.203,17.459 15.203,17.459 C 41.347,23.887 37.91,18.909 34.292,15.762 31.367,14.31 26.7,12.125 20.271,9.467 8.997,5.068 -7.925,-1.291 -28.755,-1.513 -38.933,-1.383 -50.79,0.939 -58.96,9.532 c -8.174,8.44 -11.185,21.614 -10.896,34.405 0.736,12.681 6.163,25.788 15.54,35.319 9.264,9.643 22.213,15.268 35.474,16.164 13.261,0.868 26.901,-2.233 38.98,-7.414 12.143,-5.203 22.793,-13.663 33.22,-21.653 10.359,-8.04 20.382,-16.076 30.36,-23.132 10.116,-6.897 20.119,-12.882 29.939,-17.231 9.802,-4.38 19.47,-7.169 28.153,-8.15 8.684,-0.986 16.343,-0.383 22.483,0.581 6.094,1.181 10.76,2.677 13.841,3.903 3.057,1.229 4.689,1.877 4.689,1.877 0,0 -1.697,-0.467 -4.801,-1.452 -3.193,-0.916 -7.924,-2.009 -13.974,-2.697 -12.081,-1.367 -29.849,0.577 -48.38,10.153 C 97.004,39.45 78.16,55.145 57.713,71.821 47.396,80.039 36.682,89.058 23.377,95.152 10.001,100.576 -4.62,104.102 -19.532,102.384 -34.29,100.689 -48.446,93.409 -57.688,82.316 -67.019,71.311 -72.422,57.6 -72.733,43.983 -72.535,30.697 -69.787,16.923 -60.816,7.724 -51.905,-1.563 -39.291,-3.928 -28.755,-4.039 -18.041,-4.108 -8.37,-2.12 0,0" /></g><g
       id="g8932"
       transform="translate(56.004884,411.81265)"><path
         inkscape:connector-curvature="0"
         id="path8934"
         style="fill:#ffffff;fill-opacity:1;fill-rule:nonzero;stroke:none"
         d="M 0,0 C -0.582,1.942 -0.937,3.819 -0.875,5.428 0.356,42.173 -28.355,63.495 -28.355,63.495 -55.434,4.686 4.644,-7.814 4.644,-7.814 4.575,-7.657 4.554,-7.565 4.42,-7.458 -6.343,-2.055 -17.66,10.361 -19.066,38.737 -19.066,38.737 -15.672,14.891 0,0" /></g><g
       id="g8936"
       transform="translate(1120.1635,273.14865)"><path
         inkscape:connector-curvature="0"
         id="path8938"
         style="fill:#ffffff;fill-opacity:1;fill-rule:nonzero;stroke:none"
         d="m 0,0 c -6.554,0.343 -13.017,0.732 -19.369,1.034 -5.156,0.531 -10.162,1.414 -15.134,2.046 -4.893,0.988 -9.598,2.336 -14.209,3.424 -9.041,2.996 -17.449,6.353 -24.309,11.04 -2.142,1.281 -4.076,2.704 -5.896,4.198 -0.427,0.524 -1.055,1.243 -1.913,2.231 -1.703,1.859 -4.001,4.709 -6.374,8.404 -2.457,3.71 -5.277,8.569 -7.567,14.412 -2.432,5.815 -4.357,12.736 -5.479,20.359 -1.301,7.647 -1.075,16.197 0.247,24.938 0.624,3.872 1.553,7.783 2.704,11.708 0.109,-1.351 0.176,-2.69 0.319,-4.046 1.886,-16.53 8.943,-32.131 18.682,-45.036 9.542,-13.156 21.061,-24.448 33.582,-33.459 C -32.26,12.062 -18.444,5.943 -5.056,1.515 -3.382,0.912 -1.674,0.511 0,0 m -29.661,157.82 c 4.763,3.252 9.719,7.49 14.029,13.035 2.49,3.202 4.763,6.897 6.713,10.932 0.904,1.685 1.641,3.382 2.289,5.158 9.844,-4.225 17.867,-11.317 22.915,-19.448 7.165,-10.077 6.616,-22.574 2.465,-31.386 -2.013,-3.811 -4.55,-7.04 -7.387,-9.59 -0.552,1.578 -1.172,3.13 -1.9,4.716 -1.064,2.501 -2.624,4.518 -4.173,6.481 -0.87,1.057 -1.268,2.045 -2.549,3.089 l -2.984,2.664 c -2.038,1.655 -3.904,3.697 -6.173,5.071 l -7.04,4.036 c -5.102,2.352 -10.588,4.167 -16.205,5.242 m -47.26,-20.307 c 1.415,1.343 2.867,2.702 4.437,3.957 2.084,1.582 4.122,3.28 6.256,4.801 l 6.659,3.246 c 2.127,1.362 4.709,1.703 7.161,2.42 0.591,0.116 1.188,0.332 1.783,0.476 -3.754,-2.055 -7.608,-4.179 -11.568,-6.32 -4.838,-2.511 -9.844,-5.437 -14.728,-8.58 m 65.947,51.033 c -1.644,-3.785 -3.988,-7.483 -6.83,-10.919 -5.344,-6.301 -12.234,-11.88 -19.742,-17.189 -0.908,-0.596 -1.892,-1.224 -2.8,-1.816 -1.72,-0.042 -3.462,-0.116 -5.19,-0.394 -2.795,0.065 -5.441,-1.052 -8.123,-1.718 -2.692,-0.73 -5.442,-1.186 -7.927,-2.615 l -7.584,-3.813 c -2.218,-1.49 -4.185,-3.173 -6.286,-4.782 -7.445,-6.002 -13.222,-13.106 -17.913,-20.761 -0.372,-0.375 -0.67,-0.691 -1.051,-1.084 1.323,8.197 3.759,16.191 7.254,23.615 6.993,14.393 17.703,26.589 30.577,34.797 12.698,8.535 28.074,11.197 41.693,7.841 1.348,-0.337 2.659,-0.704 3.922,-1.162 m -93.712,-93.618 c -0.129,-0.651 -0.281,-1.368 -0.41,-2.005 -1.424,-9.303 -1.67,-18.388 -0.343,-26.492 0.51,-3.62 1.222,-7.055 2.067,-10.334 -2.432,6.333 -4.001,13.232 -4.29,20.345 -0.33,6.169 0.808,12.447 2.976,18.486 m 176.48,-341.825 c -1.72,9.082 -1.285,22.617 4.914,37.207 5.926,14.631 16.749,29.757 28.204,46.18 5.541,8.312 11.798,16.9 15.649,27.346 1.398,4.345 2.536,8.831 3.168,13.41 0.171,0.686 0.369,1.365 0.578,2.118 1.59,4.947 2.712,10.664 3.808,16.917 0.741,3.131 0.917,6.466 1.348,9.898 0.39,3.399 0.82,6.931 0.795,10.606 0.247,7.311 0.029,15.125 -1.218,23.09 -0.782,3.984 -1.28,8.064 -2.545,12.028 -0.978,4.018 -2.163,8.098 -3.833,11.978 -2.917,7.986 -7.06,15.644 -11.857,22.818 C 100.89,0.875 87.929,12.623 74.502,21.387 61.21,30.314 47.298,36.033 35.378,40.398 23.396,44.646 13.004,46.867 5.792,48.279 c -1.238,0.253 -2.364,0.427 -3.436,0.582 4.608,0.73 2.679,6.927 -3.7,3.187 7.61,4.505 -0.108,10.356 -2.41,1.844 2.302,8.512 -7.379,7.238 -2.955,-0.436 -4.424,7.674 -10.312,-0.092 -1.8,-2.358 -8.512,2.266 -7.215,-7.404 0.419,-2.936 -7.634,-4.468 0.125,-10.34 2.357,-1.837 -2.232,-8.503 7.42,-7.22 2.988,0.395 3.959,-6.841 9.099,-1.27 3.921,1.557 1.298,-0.326 2.737,-0.736 4.332,-1.147 7.077,-1.98 17.08,-5.25 28.648,-9.94 11.556,-4.815 24.652,-11.367 37.429,-20.206 12.819,-8.697 25.011,-20.173 34.193,-33.725 4.6,-6.742 8.727,-13.925 11.581,-21.475 1.628,-3.712 2.833,-7.479 3.863,-11.325 1.277,-3.796 1.796,-7.655 2.595,-11.456 1.222,-7.599 1.946,-15.053 1.988,-22.139 0.18,-3.566 -0.05,-7.031 -0.301,-10.397 -0.143,-3.335 -0.181,-6.616 -0.745,-9.697 -0.172,-1.465 -0.377,-2.908 -0.573,-4.302 -0.03,0.444 -0.152,0.933 -0.206,1.431 0.369,3.248 0.653,6.575 0.845,10.112 0.884,17.578 -0.434,38.902 -9.948,59.217 -4.712,10.095 -11.58,19.654 -20.386,27.347 -8.86,7.768 -19.453,13.593 -30.674,17.511 -11.25,4.076 -23.027,5.646 -34.315,7.923 -11.393,1.908 -22.286,5.256 -32.649,8.835 -5.031,2.224 -10.112,4.057 -14.783,6.573 -4.473,2.823 -9.224,4.986 -13.163,8.129 -3.812,3.221 -8.027,5.833 -11.023,9.518 -1.641,1.772 -3.197,3.467 -4.763,5.131 -1.364,1.741 -2.561,3.683 -3.85,5.47 -5.073,7.163 -7.856,14.829 -9.798,21.629 -1.582,7.005 -2.373,13.251 -2.164,18.343 0.008,10.324 1.841,16.069 1.841,16.069 0,0 -1.921,-5.715 -2.197,-16.03 -0.264,-5.175 0.368,-11.469 1.804,-18.522 1.8,-6.937 4.491,-14.811 9.601,-22.135 1.277,-1.809 2.469,-3.738 3.875,-5.571 1.545,-1.687 3.135,-3.449 4.768,-5.194 3.051,-3.788 7.286,-6.445 11.157,-9.773 3.951,-3.252 8.723,-5.449 13.247,-8.349 4.696,-2.539 9.831,-4.435 14.887,-6.711 10.4,-3.709 21.37,-7.191 32.858,-9.145 11.397,-2.407 23.032,-4.047 34.01,-8.115 10.99,-3.784 21.499,-9.434 30.121,-16.921 8.727,-7.547 15.511,-16.796 20.206,-26.648 9.455,-19.901 11.029,-41.074 10.296,-58.535 -0.137,-2.168 -0.238,-4.349 -0.443,-6.454 -0.063,0.126 -0.075,0.227 -0.068,0.326 0.152,4.094 0.214,8.371 -0.251,12.891 -0.175,2.093 -0.276,4.211 -0.447,6.379 -0.415,2.159 -0.849,4.323 -1.252,6.537 -0.439,2.206 -0.732,4.55 -1.372,6.767 -0.779,2.223 -1.549,4.466 -2.327,6.76 -1.185,4.683 -3.918,8.877 -6.178,13.46 -1,2.31 -2.766,4.155 -4.222,6.294 -1.604,2.047 -2.805,4.412 -4.788,6.178 -3.713,3.721 -7.262,7.776 -11.807,10.777 -4.16,3.536 -8.932,6.173 -13.744,8.852 -4.735,2.871 -10.12,4.52 -15.181,6.863 -5.303,1.625 -10.651,3.395 -16.088,4.755 -5.449,0.996 -10.823,2.402 -16.381,3.097 -5.553,0.573 -11.049,1.482 -16.506,1.816 -2.244,0.126 -4.47,0.218 -6.718,0.348 -3.529,0.841 -7.094,1.804 -10.664,3.059 -13.23,4.424 -26.911,10.555 -39.183,19.7 -12.346,9.032 -23.663,20.255 -33.013,33.254 -9.63,12.87 -16.335,28.104 -18.085,44.281 -0.364,2.973 -0.485,6.014 -0.51,8.964 0.632,1.702 1.318,3.361 2.097,5.037 3.08,3.541 6.567,6.883 10.275,9.957 7.496,6.2 15.54,11.208 24.329,15.985 7.989,4.217 15.921,8.947 23.223,14.072 7.028,-0.348 13.971,-2.336 20.341,-4.981 l 6.667,-3.627 c 2.13,-1.251 3.871,-3.122 5.847,-4.664 l 2.862,-2.369 c 0.791,-0.462 1.575,-1.885 2.378,-2.758 1.615,-1.942 3.194,-3.978 4.038,-6.05 0.829,-1.655 1.562,-3.411 2.131,-5.133 -2.909,-2.141 -6.018,-3.57 -9.036,-4.031 -7.169,-0.954 -12.606,2.047 -15.339,4.6 -2.871,2.501 -3.691,4.547 -3.817,4.43 0.126,0.117 0.904,-1.958 3.788,-4.551 2.708,-2.534 8.094,-5.646 15.452,-4.853 3.001,0.46 6.144,1.85 9.106,3.844 2.152,-6.918 2.102,-14.489 -0.062,-21.039 -2.82,-8.256 -8.17,-15.511 -15.196,-18.723 -6.91,-3.44 -14.753,-2.373 -20.22,0.532 -5.612,2.875 -9.396,7.623 -9.898,12.248 -0.653,4.553 0.658,8.207 1.997,10.294 1.318,2.071 2.323,3.047 2.323,3.047 0,0 -1.005,-0.947 -2.49,-2.998 -1.412,-2.029 -2.897,-5.63 -2.412,-10.385 0.306,-4.866 4.085,-10.091 9.853,-13.36 5.658,-3.275 13.979,-4.873 21.709,-1.253 2.017,0.883 3.871,1.94 5.44,3.216 1.738,1.112 3.194,3.185 4.629,4.7 1.612,1.564 2.813,3.493 3.88,5.54 l 1.712,3.038 c 0.44,1.051 0.757,2.225 1.205,3.317 2.511,7.341 2.758,15.82 0.193,23.873 2.98,2.576 5.705,5.964 7.86,9.837 1.992,4.615 3.699,9.867 3.272,15.622 0.189,2.871 -0.753,5.684 -1.443,8.678 -0.419,1.398 -1.177,2.657 -1.758,4.043 -0.536,1.377 -1.285,2.81 -2.314,3.997 -5.081,8.343 -13.293,15.613 -23.371,20.006 0.188,0.558 0.364,1.157 0.536,1.715 2.996,9.039 4.235,19.273 2.356,29.86 -1.57,9.44 -6.479,18.922 -13.866,25.911 -7.403,6.967 -17.243,11.782 -27.598,12.75 -10.316,1.078 -21.24,-1.489 -29.338,-8.491 -8.036,-6.761 -12.129,-17.294 -11.832,-27.092 l 0.193,-3.687 c 0.196,-1.72 0.56,-2.329 0.837,-3.593 0.28,-2.063 1.783,-4.656 2.917,-6.769 2.762,-4.079 6.449,-7.174 10.559,-9.242 4.214,-1.647 8.659,-2.883 12.962,-2.174 l 1.427,0.109 c -1.758,-0.617 -3.432,-1.31 -4.73,-2.141 -4.938,-3.245 -3.331,-5.539 -1.878,-6.391 5.365,-3.197 6.705,6.548 6.804,4.357 0.064,-2.251 5.354,-5.129 7.216,2.212 1.954,7.297 2.486,1.942 3.407,1.789 5.186,-1.102 4.361,13.945 4.361,13.945 -0.105,-0.263 -0.209,-0.454 -0.268,-0.717 1.109,4.041 0.837,8.291 -0.787,11.503 -0.958,1.927 -2.272,3.311 -3.699,4.434 0.833,-0.385 1.628,-0.73 2.415,-0.908 3.653,-0.755 3.979,1.019 3.721,2.062 -0.985,3.846 -5.982,0.125 -5.019,1.094 0.992,1.092 -0.155,4.706 -4.265,2.266 -4.105,-2.434 -1.988,0.197 -2.31,0.697 -1.859,2.834 -8.216,-4.288 -8.216,-4.288 0.088,0.025 0.117,0.027 0.205,0.05 -2.222,-1.565 -3.344,-3.838 -3.633,-5.35 -0.401,-2.304 0.075,-3.506 -0.042,-3.499 0.117,-0.007 -0.205,1.245 0.373,3.405 0.661,2.119 2.738,5.185 6.927,5.781 1.899,0.126 4.29,0 6.391,-1.123 2.109,-1.112 4.085,-3.108 5.123,-5.449 2.071,-5.061 0.564,-12.136 -4.42,-16.522 l -2.034,-1.446 c -0.678,-0.414 -1.449,-0.613 -2.16,-1.053 -0.578,-0.391 -1.699,-0.418 -2.629,-0.675 -0.342,-0.065 -1.125,-0.365 -1.217,-0.291 l -1.344,-0.011 c -3.615,-0.44 -7.29,0.762 -10.76,2.277 -3.294,1.873 -6.223,4.501 -8.304,7.864 -0.435,0.856 -0.778,1.708 -1.175,2.526 -0.461,0.72 -0.749,1.81 -1.018,2.925 -0.171,0.931 -0.682,2.48 -0.598,3.02 l -0.096,3.139 c -0.163,8.348 3.386,17.137 10.241,22.678 6.55,5.569 16.046,7.939 25.045,6.82 9.102,-0.695 17.8,-4.782 24.37,-10.874 6.65,-6.146 11.079,-14.217 12.632,-22.809 0.414,-2.25 0.657,-4.588 0.82,-6.814 -1.084,2.212 -2.369,4.271 -3.658,6.136 -3.695,5.041 -7.797,8.594 -11.312,11.339 -3.47,2.746 -6.455,4.46 -8.509,5.578 -2.038,1.175 -3.232,1.663 -3.232,1.663 0,0 4.429,-2.494 10.836,-8.337 3.16,-2.955 6.91,-6.784 9.923,-11.829 3.081,-4.993 5.449,-11.443 4.935,-18.405 -0.147,-2.777 -0.779,-5.542 -1.87,-8.26 -1.357,0.465 -2.721,0.9 -4.127,1.17 -13.816,3.585 -29.955,0.789 -42.825,-7.76 -13.136,-8.251 -24.161,-20.683 -31.351,-35.321 -4.001,-8.352 -6.671,-17.53 -7.889,-26.855 -4.282,-4.627 -8.082,-9.664 -11.008,-15.226 -4.887,-9.226 -7.202,-19.714 -6.458,-29.652 0.516,-9.989 3.629,-19.165 7.819,-26.924 4.169,-7.887 9.241,-14.573 14.372,-20.211 0.866,-0.956 1.716,-1.799 2.549,-2.674 1.845,-2.321 3.909,-4.648 6.245,-6.883 0.802,-0.896 1.255,-1.431 1.255,-1.431 0.293,-0.335 0.686,-0.511 1.067,-0.679 1.624,-1.326 3.332,-2.653 5.169,-3.808 7.102,-5.332 15.816,-9.249 25.157,-12.823 4.768,-1.386 9.693,-2.956 14.741,-4.236 5.118,-0.963 10.401,-1.817 15.724,-2.491 10.534,-0.744 21.357,-1.489 32.39,-2.264 5.382,-0.418 10.459,-1.347 15.719,-2.009 5.27,-0.686 10.459,-2.18 15.696,-3.164 5.139,-1.243 10.19,-2.854 15.297,-4.294 4.712,-2.126 9.856,-3.549 14.242,-6.127 4.499,-2.394 9.04,-4.788 12.853,-7.969 4.243,-2.695 7.508,-6.311 10.965,-9.643 3.202,-3.574 5.935,-7.399 8.56,-11.203 2.217,-4.073 4.904,-7.815 6.273,-12.113 0.854,-2.122 1.607,-4.173 2.41,-6.202 0.758,-2.043 1.097,-4.219 1.616,-6.282 0.515,-2.067 1.072,-4.16 1.495,-6.145 0.234,-1.816 0.434,-3.657 0.639,-5.436 -3.071,5.244 -7.131,9.882 -11.94,13.339 -8.839,6.411 -19.536,9.68 -29.887,9.115 -10.036,-0.846 -20.253,-3.725 -26.698,-11.024 -6.525,-7.307 -7.609,-16.975 -7.102,-24.956 0.586,-8.125 2.637,-15.302 4.704,-21.526 2.168,-6.194 4.39,-11.459 6.336,-15.736 1.825,-3.901 3.428,-6.944 4.571,-9.132 2.118,-6.923 8.065,-16.311 24.873,-12.041 0,0 -6.336,13.066 -21.16,15.313 -0.621,0.134 -1.365,0.385 -2.077,0.762 4.746,-7.387 14.05,-10.509 14.05,-10.509 -6.131,1.453 -10.082,3.703 -12.682,6.299 -1.225,2.084 -3.217,5.52 -5.578,10.275 -4.002,8.257 -9.768,20.658 -11.141,36.424 -0.511,7.726 0.606,16.841 6.688,23.517 5.918,6.667 15.698,9.688 25.359,10.225 9.717,0.159 19.887,-3.24 27.627,-9.777 7.817,-6.441 12.839,-15.929 14.28,-25.886 1.401,-9.999 -0.168,-20.487 -3.378,-29.946 -3.243,-9.496 -9.015,-18.017 -14.469,-26.363 -5.512,-8.299 -11.023,-16.335 -15.807,-24.304 -4.629,-8.002 -8.597,-15.912 -11.3,-23.655 -2.754,-7.634 -4.312,-15.05 -4.533,-21.721 -0.259,-6.646 0.59,-12.414 1.674,-16.975 1.285,-4.563 2.649,-7.986 3.78,-10.246 1.079,-2.277 1.673,-3.474 1.673,-3.474 0,0 -0.468,1.272 -1.385,3.607 -0.858,2.311 -1.921,5.835 -2.8,10.389" /></g><g
       id="g8940"
       transform="translate(1088.8911,380.60515)"><path
         inkscape:connector-curvature="0"
         id="path8942"
         style="fill:#ffffff;fill-opacity:1;fill-rule:nonzero;stroke:none"
         d="m 0,0 c 0.23,-0.523 0.536,-0.956 0.85,-1.257 7.269,-7.446 5.374,-17.321 5.374,-17.321 -16.796,7.067 -6.772,21.075 -6.772,21.075 0,0 0.029,-0.011 0.029,-0.084 -1.193,-3.206 -1.138,-7.869 3.939,-14.054 0,0 -3.856,5.602 -3.42,11.641" /></g><g
       id="g8944"
       transform="translate(1046.0971,281.20085)"><path
         inkscape:connector-curvature="0"
         id="path8946"
         style="fill:#ffffff;fill-opacity:1;fill-rule:nonzero;stroke:none"
         d="m 0,0 c 6.156,-2.302 11.371,-4.583 15.619,-6.617 3.805,-1.891 6.784,-3.499 8.948,-4.692 6.889,-2.192 16.247,-8.286 11.677,-25.178 0,0 -12.966,6.654 -14.929,21.495 -0.104,0.654 -0.331,1.348 -0.711,2.064 7.299,-4.851 10.258,-14.234 10.258,-14.234 -1.336,6.177 -3.595,10.153 -6.077,12.857 -2.097,1.256 -5.478,3.273 -10.145,5.725 -8.203,4.144 -20.499,10.116 -36.248,11.845 -7.705,0.556 -16.822,-0.331 -23.619,-6.278 -6.767,-5.751 -9.998,-15.469 -10.675,-25.137 -0.335,-9.684 2.816,-19.947 9.236,-27.824 6.286,-7.926 15.661,-13.174 25.622,-14.74 9.966,-1.64 20.466,-0.226 29.987,2.796 9.547,3.064 18.194,8.676 26.623,13.958 8.4,5.394 16.544,10.752 24.593,15.364 8.127,4.457 16.088,8.316 23.852,10.831 7.713,2.612 15.15,4.047 21.797,4.169 6.679,0.117 12.392,-0.862 16.963,-2.026 4.528,-1.364 7.972,-2.796 10.203,-3.976 2.239,-1.151 3.411,-1.758 3.411,-1.758 0,0 -1.247,0.527 -3.558,1.473 -2.344,0.929 -5.859,2.055 -10.342,3.039 -9.047,1.866 -22.575,1.678 -37.286,-4.215 C 70.476,-36.717 55.12,-47.235 38.462,-58.393 30.088,-63.842 21.345,-69.91 10.869,-73.526 c -10.51,-3.164 -21.771,-4.746 -32.917,-2.403 -11.037,2.352 -21.186,8.823 -27.405,17.884 -6.253,8.964 -9.362,19.758 -8.597,30.045 1.068,9.987 4.118,20.199 11.56,26.502 7.412,6.412 17.105,7.266 25.053,6.604 C -13.317,4.391 -6.169,2.235 0,0" /></g><g
       id="g8948"
       transform="translate(1024.7944,212.42055)"><path
         inkscape:connector-curvature="0"
         id="path8950"
         style="fill:#ffffff;fill-opacity:1;fill-rule:nonzero;stroke:none"
         d="m 0,0 c 0.059,-0.042 0.059,-0.042 0.092,-0.063 0,0 -24.865,2.226 -16.683,27.233 0,0 12.602,-7.249 13.845,-22.206 0.033,-0.628 0.26,-1.348 0.595,-2.11 C -9.17,8.111 -11.66,17.636 -11.66,17.636 -9.773,6.224 -4.642,1.694 0,0" /></g><g
       id="g8952"
       transform="translate(997.88228,269.23555)"><path
         inkscape:connector-curvature="0"
         id="path8954"
         style="fill:#ffffff;fill-opacity:1;fill-rule:nonzero;stroke:none"
         d="m 0,0 c 0,0 11.619,22.127 31.604,4.922 0,0 -11.543,-8.865 -25.803,-4.232 C 5.174,0.891 4.42,0.958 3.596,0.917 11.184,5.391 20.872,4.068 20.872,4.068 9.639,6.717 3.462,3.683 0.176,0.012 0.122,0.021 0.088,-0.004 0,0" /></g><g
       id="g8956"
       transform="translate(973.85498,478.57005)"><path
         inkscape:connector-curvature="0"
         id="path8958"
         style="fill:#ffffff;fill-opacity:1;fill-rule:nonzero;stroke:none"
         d="m 0,0 c 2.478,-4.043 4.951,-8.124 7.404,-12.066 1.775,-3.328 3.323,-6.711 5.005,-10.001 1.441,-3.302 2.583,-6.711 3.821,-9.957 1.892,-6.671 3.357,-13.11 3.395,-19.208 0.108,-1.774 0.033,-3.574 -0.071,-5.263 -0.147,-0.45 -0.331,-1.147 -0.561,-2.126 -0.419,-1.756 -1.193,-4.328 -2.431,-7.274 -1.207,-3.007 -2.968,-6.699 -5.554,-10.482 -2.483,-3.917 -5.86,-7.918 -9.999,-11.769 -4.076,-3.938 -9.296,-7.272 -15.126,-10.12 -2.586,-1.254 -5.307,-2.306 -8.149,-3.174 0.754,0.592 1.524,1.194 2.269,1.843 9.179,7.946 15.699,18.662 19.44,29.818 3.939,11.173 6.019,22.814 6.257,34.091 C 6.068,-24.394 4.052,-13.519 1.201,-3.654 0.829,-2.386 0.402,-1.193 0,0 m -82.768,-83.084 c -3.918,1.544 -8.534,2.777 -13.661,3.06 -2.975,0.198 -6.139,0.035 -9.387,-0.457 -1.377,-0.161 -2.725,-0.456 -4.022,-0.795 -1.519,7.661 -0.56,15.452 2.239,21.858 3.097,8.485 10.865,13.292 17.888,14.468 3.097,0.372 6.102,0.144 8.818,-0.456 -0.724,-1.021 -1.398,-2.009 -2.025,-3.112 -1.135,-1.71 -1.67,-3.444 -2.231,-5.215 -0.259,-0.943 -0.674,-1.569 -0.795,-2.816 l -0.356,-2.892 c -0.13,-1.932 -0.624,-3.891 -0.544,-5.808 l 0.473,-5.913 c 0.749,-4.018 1.892,-8.067 3.603,-11.922 m 31.779,-20.054 c -1.44,0.272 -2.85,0.596 -4.261,1.034 -1.774,0.609 -3.703,1.113 -5.453,1.741 l -4.692,2.72 c -1.711,0.714 -3.017,2.087 -4.432,3.296 -0.33,0.285 -0.682,0.58 -1.026,0.858 2.813,-1.397 5.655,-2.812 8.539,-4.344 3.57,-1.862 7.362,-3.685 11.325,-5.305 m -58.067,18.618 c 2.997,0.534 6.182,0.614 9.451,0.392 5.976,-0.651 12.205,-2.434 18.486,-4.811 0.75,-0.281 1.499,-0.62 2.268,-0.932 0.746,-1.01 1.529,-2.036 2.39,-2.962 1.139,-1.656 2.851,-2.861 4.357,-4.171 1.541,-1.325 2.985,-2.798 4.893,-3.666 l 5.398,-2.972 c 1.842,-0.722 3.667,-1.255 5.517,-1.835 6.667,-2.003 13.351,-2.553 19.897,-2.237 0.351,-0.036 0.719,-0.119 1.076,-0.155 -5.475,-2.612 -11.292,-4.464 -17.236,-5.397 -11.534,-1.752 -23.324,-0.36 -33.603,4.028 -10.355,4.129 -18.34,12.246 -21.922,21.881 -0.386,0.914 -0.666,1.858 -0.972,2.837 m 95.191,-17.77 c 0.422,0.199 0.916,0.373 1.351,0.602 6.173,2.958 11.732,6.588 16.105,10.754 1.971,1.781 3.746,3.656 5.348,5.481 -2.783,-4.064 -6.29,-7.849 -10.459,-10.938 -3.598,-2.794 -7.83,-4.711 -12.345,-5.899 M 119.05,145.312 c -4.754,-4.79 -13.116,-10.09 -24.434,-12.453 -11.27,-2.442 -24.864,-2.185 -39.505,-2.084 -7.315,-0.025 -15.058,0.123 -22.918,-1.852 -3.202,-0.954 -6.349,-2.153 -9.379,-3.606 -0.51,-0.186 -1.017,-0.347 -1.532,-0.533 -3.636,-1.086 -7.542,-2.763 -11.79,-4.671 -2.155,-0.885 -4.244,-2.118 -6.471,-3.338 -2.221,-1.153 -4.548,-2.398 -6.746,-3.923 -4.528,-2.836 -9.12,-6.216 -13.414,-10.296 -2.084,-2.024 -4.314,-4.02 -6.215,-6.498 -1.996,-2.225 -3.925,-4.633 -5.617,-7.228 -3.607,-5.037 -6.457,-10.721 -8.842,-16.548 -4.437,-11.832 -6.111,-24.505 -5.86,-36.205 0.101,-11.782 2.423,-22.479 4.692,-31.438 2.431,-9.011 5.399,-16.159 7.516,-21.1 0.381,-0.851 0.716,-1.59 1.051,-2.346 -2.348,2.51 -5.303,-1.194 -0.406,-3.532 -5.805,2.733 -6.169,-4.307 -0.079,-2.166 -6.09,-2.141 -1.302,-7.466 1.464,-1.601 -2.766,-5.865 4.294,-6.19 2.172,-0.102 2.122,-6.088 7.442,-1.319 1.637,1.441 5.805,-2.76 6.169,4.349 0.096,2.202 6.073,2.147 1.281,7.433 -1.46,1.607 2.461,5.173 -3.006,6.035 -2.571,1.771 -0.335,0.849 -0.694,1.873 -1.091,3.059 -1.734,5.072 -3.897,12.42 -5.856,21.376 -1.891,8.896 -3.336,19.485 -3.277,30.879 -0.109,11.302 1.783,23.373 6.139,34.501 2.156,5.577 4.797,11.016 8.145,15.833 1.587,2.537 3.349,4.82 5.249,7.063 1.745,2.316 3.829,4.225 5.805,6.253 4.085,3.896 8.265,7.462 12.517,10.321 2.089,1.709 4.274,2.929 6.363,4.164 2.117,1.293 4.101,2.643 6.194,3.568 0.941,0.483 1.875,0.971 2.82,1.429 -0.271,-0.211 -0.506,-0.5 -0.782,-0.705 -2.089,-1.099 -4.261,-2.283 -6.458,-3.71 -10.928,-6.695 -23.236,-16.327 -31.545,-30.44 -4.113,-6.989 -7.022,-15.094 -8.039,-23.605 -1.014,-8.479 -0.146,-17.308 2.134,-25.724 2.168,-8.367 6.115,-16.166 9.391,-23.917 3.58,-7.588 6.07,-15.588 8.216,-23.279 0.703,-3.974 1.721,-7.78 2.131,-11.672 0.13,-3.817 0.816,-7.519 0.531,-11.275 -0.339,-3.577 -0.184,-7.197 -1.163,-10.575 -0.381,-1.663 -0.766,-3.329 -1.118,-4.93 -0.489,-1.603 -1.138,-3.089 -1.712,-4.616 -2.214,-6.01 -5.671,-10.882 -8.969,-14.824 -3.565,-3.882 -6.968,-6.927 -10.149,-8.93 -6.24,-4.237 -10.442,-5.493 -10.442,-5.493 0,0 4.231,1.168 10.555,5.297 3.248,1.96 6.764,4.945 10.388,8.732 3.486,3.943 7.073,8.779 9.375,14.921 0.569,1.517 1.26,3.047 1.783,4.635 0.36,1.665 0.758,3.329 1.139,5.026 1.02,3.443 0.912,7.088 1.251,10.744 0.351,3.74 -0.297,7.506 -0.448,11.472 -0.406,3.811 -1.402,7.715 -2.105,11.695 -2.038,7.821 -4.495,15.877 -8.036,23.599 -3.294,7.862 -7.103,15.573 -9.195,23.839 -2.256,8.174 -3.198,16.804 -2.235,25.116 0.921,8.325 3.7,16.296 7.689,23.229 8.086,13.874 20.156,23.558 31.004,30.353 1.382,0.856 2.724,1.607 4.051,2.445 -0.071,-0.101 -0.126,-0.166 -0.163,-0.258 -2.532,-1.53 -5.148,-3.294 -7.646,-5.439 -1.197,-0.942 -2.432,-1.952 -3.679,-2.917 -1.105,-1.117 -2.256,-2.302 -3.436,-3.422 -1.139,-1.215 -2.411,-2.322 -3.461,-3.687 -1.047,-1.362 -2.06,-2.733 -3.131,-4.131 -2.323,-2.638 -3.737,-6.079 -5.57,-9.274 -0.943,-1.538 -1.353,-3.442 -2.039,-5.179 -0.578,-1.79 -1.502,-3.539 -1.746,-5.449 -0.711,-3.744 -1.648,-7.574 -1.611,-11.554 -0.41,-3.918 -0.033,-7.927 0.348,-11.945 0.247,-4.072 1.448,-7.931 2.155,-11.98 1.218,-3.792 2.353,-7.807 3.788,-11.587 1.641,-3.723 3.043,-7.569 4.897,-11.179 1.937,-3.586 3.67,-7.253 5.725,-10.718 0.866,-1.408 1.712,-2.75 2.562,-4.221 0.97,-2.476 1.858,-4.975 2.594,-7.632 2.78,-9.823 4.726,-20.592 4.316,-31.783 -0.344,-11.164 -2.395,-22.59 -6.358,-33.597 -3.792,-11.141 -10.216,-21.494 -19.194,-29.203 -1.674,-1.475 -3.432,-2.808 -5.215,-4.03 -1.26,-0.327 -2.573,-0.613 -3.867,-0.81 -3.44,0.343 -6.876,1.078 -10.258,2.057 -6.855,1.976 -13.196,4.715 -19.687,8.055 -5.86,3.034 -11.979,5.911 -18.06,8.167 -2.721,4.426 -4.394,9.369 -5.424,14.328 l -0.582,5.527 c -0.121,1.808 0.306,3.616 0.377,5.42 l 0.272,2.695 c -0.059,0.665 0.452,1.718 0.657,2.624 0.519,1.725 1.042,3.545 1.979,4.92 0.641,1.214 1.407,2.317 2.24,3.373 2.469,-0.859 4.616,-2.117 6.161,-3.771 3.507,-3.942 3.951,-8.405 3.574,-11.13 -0.344,-2.771 -1.239,-4.116 -1.122,-4.131 -0.117,0.015 0.812,1.35 1.177,4.177 0.426,2.668 0.029,7.161 -3.437,11.302 -1.553,1.618 -3.671,2.946 -6.114,3.916 3.302,4.155 7.863,7.234 12.693,8.646 6.127,1.666 12.732,1.486 17.578,-1.423 4.935,-2.743 7.526,-7.889 8.032,-12.415 0.586,-4.541 -0.707,-8.779 -3.306,-11.016 -2.466,-2.325 -5.202,-2.999 -7.007,-3.068 -1.795,-0.048 -2.778,0.18 -2.778,0.18 0,0 0.945,-0.293 2.816,-0.268 1.787,-0.012 4.616,0.607 7.262,2.836 2.796,2.21 4.369,6.636 3.976,11.465 -0.377,4.698 -2.879,10.376 -8.246,13.544 -1.347,0.873 -2.728,1.588 -4.193,1.961 -1.386,0.64 -3.202,0.642 -4.713,0.849 -1.636,0.331 -3.272,0.279 -4.926,0.059 l -2.557,-0.195 c -0.803,-0.198 -1.645,-0.466 -2.482,-0.686 -5.469,-1.532 -10.702,-4.878 -14.476,-9.766 -2.796,0.742 -5.898,1 -9.162,0.667 -3.62,-0.63 -7.513,-1.806 -10.769,-4.441 -1.791,-1.125 -3.122,-2.822 -4.612,-4.49 -0.665,-0.804 -1.13,-1.781 -1.716,-2.691 -0.611,-0.898 -1.185,-1.959 -1.448,-3.078 -2.93,-6.484 -3.947,-14.446 -2.386,-22.354 -0.427,-0.061 -0.832,-0.226 -1.26,-0.393 -6.696,-1.932 -13.371,-5.373 -18.996,-10.933 -5.002,-4.829 -8.681,-11.681 -9.819,-19.064 -1.189,-7.338 0.005,-15.259 3.679,-21.888 3.612,-6.651 9.706,-12.146 17.285,-14.121 7.358,-2.049 15.415,-0.16 21.19,4.072 l 2.143,1.603 c 0.971,0.879 1.18,1.335 1.841,2.034 1.088,0.987 2.035,2.973 2.842,4.499 1.306,3.365 1.658,6.9 1.205,10.216 -0.736,3.227 -1.882,6.385 -4.05,8.683 l -0.645,0.843 c 1.088,-0.818 2.163,-1.532 3.214,-1.969 4.014,-1.653 4.726,0.282 4.675,1.527 -0.33,4.493 -6.751,1.337 -5.441,2.284 1.293,0.972 0.85,5.332 -4.352,3.442 -5.215,-1.869 -2.194,0.668 -2.457,1.306 -1.491,3.576 -10.208,-3.185 -10.208,-3.185 0.197,0.067 0.373,0.133 0.565,0.177 -2.938,-1.014 -5.345,-2.894 -6.655,-5.233 -0.724,-1.367 -1.046,-2.744 -1.121,-4.085 -0.121,0.693 -0.235,1.306 -0.452,1.867 -1.068,2.5 -2.265,1.95 -2.78,1.375 -1.887,-2.171 2.428,-3.657 1.423,-3.46 -1.037,0.13 -2.812,-2.063 0.386,-3.473 3.181,-1.511 0.716,-1.294 0.535,-1.756 -0.925,-2.26 5.989,-3.166 5.989,-3.166 -0.054,0.058 -0.062,0.113 -0.133,0.151 1.887,-0.718 3.708,-0.436 4.712,0.029 1.561,0.636 2.134,1.448 2.152,1.429 -0.018,0.019 -0.679,-0.686 -2.21,-1.239 -1.532,-0.466 -4.253,-0.496 -6.333,1.773 -0.87,1.092 -1.762,2.624 -1.958,4.361 -0.227,1.72 0.15,3.729 1.142,5.279 2.181,3.355 7.061,5.393 11.786,4.213 l 1.695,-0.622 c 0.557,-0.253 0.992,-0.653 1.498,-0.889 0.511,-0.163 1.025,-0.883 1.545,-1.3 0.2,-0.202 0.648,-0.527 0.678,-0.607 l 0.547,-0.799 c 1.784,-1.994 2.549,-4.735 3.073,-7.422 0.259,-2.748 -0.155,-5.634 -1.319,-8.26 -0.297,-0.638 -0.707,-1.185 -1.038,-1.776 -0.238,-0.539 -0.74,-1.179 -1.322,-1.788 -0.502,-0.487 -1.21,-1.446 -1.549,-1.601 l -1.849,-1.372 c -4.964,-3.529 -11.723,-5.037 -17.93,-3.204 -6.056,1.628 -11.413,6.349 -14.456,12.271 -3.336,5.759 -4.437,12.681 -3.52,19.185 0.946,6.55 4.01,12.5 8.504,17.007 1.21,1.164 2.474,2.269 3.821,3.365 -0.92,-1.632 -1.644,-3.212 -2.163,-4.746 -1.574,-4.324 -1.992,-8.303 -2.197,-11.511 -0.234,-3.249 -0.021,-5.764 0.147,-7.469 0.146,-1.716 0.342,-2.637 0.342,-2.637 0,0 -0.338,3.74 0.524,10.011 0.481,3.101 1.234,6.925 3.034,10.853 1.766,3.934 4.62,8 9.065,10.58 1.712,1.084 3.654,1.795 5.763,2.291 0.268,-0.991 0.54,-2.021 0.921,-3.011 3.583,-9.798 11.928,-18.394 22.438,-22.552 10.4,-4.491 22.436,-6.019 34.213,-4.307 6.705,1.082 13.31,3.229 19.442,6.368 4.57,-0.661 9.136,-0.866 13.748,-0.354 7.571,0.923 14.846,3.861 20.495,8.394 5.784,4.451 10.019,10.062 13,15.856 3.013,5.752 4.955,11.572 6.235,16.967 0.205,0.937 0.352,1.808 0.536,2.635 0.641,2.088 1.189,4.298 1.557,6.61 0.222,0.896 0.373,1.375 0.373,1.375 0.079,0.304 0.025,0.63 -0.067,0.908 0.176,1.52 0.218,3.081 0.172,4.719 0.305,6.464 -0.951,13.328 -2.666,20.466 -1.172,3.407 -2.214,7.05 -3.562,10.643 -1.536,3.449 -3.206,6.971 -4.985,10.472 -3.917,6.602 -7.935,13.451 -12.041,20.407 -1.967,3.418 -3.503,6.862 -5.298,10.365 -1.729,3.434 -2.985,7.155 -4.55,10.739 -1.393,3.639 -2.511,7.28 -3.746,10.941 -0.661,3.769 -1.958,7.393 -2.197,11.124 -0.435,3.723 -0.854,7.435 -0.523,11.079 -0.117,3.655 0.707,7.077 1.277,10.565 0.828,3.392 2.038,6.65 3.218,9.802 1.519,2.951 2.641,6.18 4.692,8.745 0.928,1.377 1.837,2.685 2.724,4.028 0.946,1.344 2.101,2.386 3.114,3.552 1.059,1.163 2.109,2.352 3.114,3.448 1.021,0.894 2.021,1.752 3.03,2.643 C 2.829,103.897 1.721,99.546 1.633,95.198 1.439,87.252 3.847,79.401 8.459,73.456 c 4.679,-5.72 10.626,-10.708 17.728,-11.55 7.057,-0.868 13.322,2.417 17.921,6.029 4.655,3.714 8.154,7.906 11.016,11.763 2.838,3.846 5.098,7.372 6.855,10.306 1.617,2.7 2.805,4.945 3.621,6.533 3.306,4.077 6.5,11.568 -3,19.945 0,0 -5.245,-9.234 -0.516,-19.072 0.201,-0.421 0.352,-0.986 0.423,-1.536 2.499,5.959 0.54,12.78 0.54,12.78 1.615,-4.305 1.904,-7.632 1.448,-10.21 -0.766,-1.666 -2.009,-4.236 -3.88,-7.626 C 57.288,84.965 52.187,76.394 43.222,69.011 38.811,65.583 32.871,62.467 26.317,63.332 19.876,64.102 13.991,68.781 9.706,74.422 5.588,80.186 3.407,87.71 4.152,95.058 c 0.645,7.358 4.298,14.33 9.722,19.327 5.416,4.972 12.372,8.331 19.42,10.317 7.04,1.984 14.569,2.03 21.847,2.155 7.295,0.16 14.406,0.137 21.169,0.584 6.747,0.517 13.137,1.377 18.905,2.947 5.751,1.563 10.878,3.597 14.967,6.236 4.109,2.605 7.236,5.474 9.525,8.085 2.227,2.614 3.691,4.855 4.612,6.473 0.929,1.551 1.394,2.457 1.394,2.457 0,0 -0.569,-0.797 -1.566,-2.304 -1.058,-1.496 -2.757,-3.62 -5.097,-6.023" /></g><g
       id="g8960"
       transform="translate(922.05808,415.32445)"><path
         inkscape:connector-curvature="0"
         id="path8962"
         style="fill:#ffffff;fill-opacity:1;fill-rule:nonzero;stroke:none"
         d="m 0,0 c 0.222,0.389 0.39,0.705 0.439,1.044 1.423,7.458 8.183,10.421 8.183,10.421 2.695,-13.043 -9.911,-12.859 -9.911,-12.859 0.033,0.063 0.033,0.063 0.071,0.061 2.411,0.621 5.24,2.651 6.822,8.218 C 5.604,6.885 3.854,2.274 0,0" /></g><g
       id="g8964"
       transform="translate(899.81778,322.43235)"><path
         inkscape:connector-curvature="0"
         id="path8966"
         style="fill:#ffffff;fill-opacity:1;fill-rule:nonzero;stroke:none"
         d="m 0,0 c 6.156,-2.279 11.363,-4.579 15.628,-6.617 3.804,-1.873 6.759,-3.493 8.969,-4.69 6.842,-2.231 16.221,-8.341 11.651,-25.178 0,0 -12.961,6.654 -14.929,21.487 -0.095,0.676 -0.346,1.396 -0.703,2.093 7.295,-4.862 10.238,-14.268 10.238,-14.268 -1.323,6.175 -3.562,10.183 -6.073,12.824 -2.105,1.299 -5.474,3.289 -10.136,5.75 C 6.441,-4.468 -5.889,1.544 -21.613,3.2 -29.306,3.819 -38.43,2.919 -45.218,-2.995 c -6.771,-5.788 -9.99,-15.521 -10.684,-25.208 -0.344,-9.634 2.812,-19.913 9.219,-27.786 6.308,-7.943 15.691,-13.12 25.644,-14.748 9.952,-1.599 20.478,-0.226 29.971,2.824 9.542,3.064 18.193,8.693 26.642,13.988 8.397,5.328 16.545,10.685 24.589,15.305 8.124,4.487 16.105,8.295 23.835,10.873 7.718,2.612 15.222,4.027 21.856,4.148 6.625,0.121 12.367,-0.875 16.937,-2.047 4.521,-1.322 7.936,-2.787 10.175,-3.929 2.226,-1.151 3.402,-1.762 3.402,-1.762 0,0 -1.238,0.477 -3.515,1.443 -2.348,0.926 -5.847,2.089 -10.367,3.039 -9.023,1.896 -22.584,1.695 -37.265,-4.219 -14.762,-5.654 -30.114,-16.155 -46.75,-27.3 -8.383,-5.466 -17.117,-11.518 -27.606,-15.168 -10.488,-3.143 -21.785,-4.762 -32.922,-2.402 -11.032,2.336 -21.207,8.84 -27.392,17.888 -6.266,8.977 -9.371,19.717 -8.634,30.034 1.104,10.015 4.16,20.221 11.597,26.525 7.391,6.379 17.092,7.27 25.057,6.603 C -13.33,4.388 -6.165,2.204 0,0" /></g><g
       id="g8968"
       transform="translate(980.22898,281.15935)"><path
         inkscape:connector-curvature="0"
         id="path8970"
         style="fill:#ffffff;fill-opacity:1;fill-rule:nonzero;stroke:none"
         d="m 0,0 c -0.581,-1.423 -0.983,-2.813 -1.042,-4.035 -1.703,-27.84 -24.91,-41.903 -24.91,-41.903 C -42.212,0.418 4.06,5.575 4.06,5.575 4.006,5.458 3.972,5.395 3.876,5.319 -4.642,2.009 -14.079,-6.562 -17.168,-27.899 c 0,0 4.265,17.771 17.168,27.899" /></g><g
       id="g8972"
       transform="translate(878.50238,253.62865)"><path
         inkscape:connector-curvature="0"
         id="path8974"
         style="fill:#ffffff;fill-opacity:1;fill-rule:nonzero;stroke:none"
         d="m 0,0 c 0.066,-0.017 0.083,-0.021 0.104,-0.109 0,0 -24.873,2.285 -16.666,27.305 0,0 12.611,-7.233 13.808,-22.216 0.063,-0.657 0.268,-1.373 0.619,-2.134 -7.056,5.29 -9.505,14.782 -9.505,14.782 C -9.765,6.24 -4.621,1.699 0,0" /></g><g
       id="g8976"
       transform="translate(851.63228,310.48745)"><path
         inkscape:connector-curvature="0"
         id="path8978"
         style="fill:#ffffff;fill-opacity:1;fill-rule:nonzero;stroke:none"
         d="m 0,0 c 0,0 11.61,22.061 31.595,4.884 0,0 -11.568,-8.839 -25.84,-4.238 C 5.156,0.887 4.407,0.962 3.566,0.881 11.138,5.37 20.864,4.028 20.864,4.028 9.58,6.694 3.47,3.647 0.135,0.015 0.101,-0.017 0.051,-0.002 0,0" /></g></g></svg>