<?xml version="1.0" encoding="utf-8"?>
<!-- Designed by Vexels.com - 2016 All Rights Reserved - https://vexels.com/terms-and-conditions/  -->

<svg version="1.0" id="Capa_1" xmlns="http://www.w3.org/2000/svg" xmlns:xlink="http://www.w3.org/1999/xlink" x="0px" y="0px"
	 width="1200px" height="1200px" viewBox="0 0 1200 1200" enable-background="new 0 0 1200 1200" xml:space="preserve">
<g>
	<path d="M599.923,36.824c-310.524,0-563.099,252.577-563.099,563.101c0,310.675,252.575,563.252,563.099,563.252
		s563.253-252.577,563.253-563.252C1163.176,289.4,910.447,36.824,599.923,36.824z M553.944,563.843
		c-4.822,1.853-10.495,9.814-10.423,14.868c1.731,121.451,4.19,242.889,6.544,364.33c0.074,3.872,0.609,11.612,0.609,11.612
		l-75.346,0.466c0,0,7.955-313.267,7.138-375.925c-0.072-5.416-6.416-13.719-11.676-15.618
		c-35.054-12.646-47.483-28.545-46.521-65.966c2.023-78.791,4.571-157.569,7.508-236.33c0.204-5.496,5.385-10.809,8.255-16.206
		c2.474,5.796,6.886,11.512,7.126,17.399c2.501,61.318,4.166,122.671,6.638,183.992c0.217,5.412,3.32,14.118,7.06,15.367
		c13.544,4.519,13.808-5.458,13.978-15.349c1.033-60.726,2.059-121.455,3.973-182.155c0.209-6.574,6.1-12.971,9.356-19.449
		c3.174,6.637,8.896,13.186,9.131,19.927c2.072,59.394,3.11,118.824,4.62,178.24c0.215,8.571-2.181,20.931,11.748,18.805
		c4.449-0.678,10.159-11.77,10.414-18.289c2.22-56.153,3.318-112.349,4.765-168.532c0.183-7.103-0.688-14.515,1.134-21.18
		c0.987-3.614,6.29-7.177,10.327-8.292c1.658-0.456,6.263,5.219,7.442,8.793c1.351,4.09,0.335,8.946,0.422,13.468
		c1.166,60.078,2.112,120.165,3.936,180.223c0.155,5.079,6.183,9.979,9.481,14.962c3.613-4.8,10.155-9.457,10.396-14.422
		c2.948-60.645,4.977-121.337,7.219-182.017c0.141-3.873-1.06-8.278,0.419-11.494c1.778-3.872,5.752-6.734,8.773-10.036
		c2.265,3.347,6.233,6.559,6.507,10.061c1.515,19.316,2.469,38.695,2.984,58.067c1.598,60.063,3.012,120.131,4.301,180.201
		C603.073,535.147,593.13,548.779,553.944,563.843z M773.621,953.067c0,0-56.916,4.615-56.916,0s0-332.277,0-332.277h-79.991
		c0,0,38.55-392.73,136.908-375.353C778.171,246.24,773.621,953.067,773.621,953.067z"/>
</g>
</svg>
